<?xml version="1.0" encoding="utf-8"?>
<!-- Generator: Adobe Illustrator 18.0.0, SVG Export Plug-In . SVG Version: 6.00 Build 0)  -->
<!DOCTYPE svg PUBLIC "-//W3C//DTD SVG 1.1//EN" "http://www.w3.org/Graphics/SVG/1.1/DTD/svg11.dtd">
<svg version="1.1" xmlns="http://www.w3.org/2000/svg" xmlns:xlink="http://www.w3.org/1999/xlink" x="0px" y="0px"
	 viewBox="0 0 2272 1872" enable-background="new 0 0 2272 1872" xml:space="preserve">
<g id="Background">
	<rect x="-8" y="-25.8" fill="#58595B" width="2322.1" height="1917.3"/>
</g>
<g id="Object">
	<path fill="#4D4D4F" d="M354.8,723.6c-23-23.5-49-50-49.1-115.6c8.2-6.3,20.5-18.5,24.8-37.1c3.2-13.9,1.4-28.8-5.4-44.5
		c0,0,0-0.1,0-0.1c-0.5-1.1-1-2.2-1.5-3.3c-0.1-0.2-0.2-0.3-0.2-0.5c-1.4-2.9-2.9-5.8-4.7-8.7c-0.4-0.7-0.8-1.4-1.2-2.1
		c-0.4-0.6-0.8-1.3-1.2-1.9c-0.5-0.8-1.1-1.7-1.6-2.5c-0.3-0.5-0.7-1-1-1.6c-0.1-0.2-0.2-0.3-0.3-0.5c12.4-16.6,19.2-36.9,19.2-57.8
		c0-53.1-43.2-96.4-96.4-96.4s-96.4,43.2-96.4,96.4c0,20.8,6.8,41.2,19.2,57.8c-0.1,0.2-0.2,0.3-0.3,0.5c-0.3,0.5-0.6,1-1,1.4
		c-0.6,0.9-1.2,1.8-1.7,2.6c-0.4,0.6-0.8,1.2-1.1,1.8c-0.4,0.7-0.9,1.4-1.3,2.2c-1.7,2.9-3.2,5.8-4.6,8.6c-0.1,0.2-0.2,0.3-0.3,0.5
		c-0.5,1.1-1,2.2-1.5,3.3c0,0,0,0.1-0.1,0.1c-6.8,15.6-8.6,30.5-5.4,44.5c6.6,28.2,31.4,41.7,32.4,42.2c0.4,0.2,0.8,0.4,1.3,0.5
		c-1.5,61.5-26.7,87.2-49,110C112,738.4,98.3,752.5,96,773.8c-3.9,36,14.1,50.6,22.4,55.3v37.1c0,3.3,2.7,5.9,5.9,5.9h232.9
		c3.3,0,5.9-2.7,5.9-5.9v-37.1c8.2-4.7,26.3-19.4,22.4-55.3C383.1,752.5,369.3,738.4,354.8,723.6z"/>
	<path fill="#4D4D4F" d="M1969.9,829.2v37.1c0,3.3,2.7,5.9,5.9,5.9h232.9c3.3,0,5.9-2.7,5.9-5.9v-37.1c8.2-4.7,26.3-19.4,22.4-55.3
		c-2.2-20.1-16.1-43.2-32.1-69.8c-25.2-41.8-56.4-93.6-58.2-158.3h3.1c0.8,0,1.7-0.2,2.4-0.5c1.1-0.5,24.8-11.3,31.7-34.4h25.7
		c1.6,0,3.1-0.6,4.2-1.8c1.1-1.1,1.7-2.7,1.7-4.2c-0.3-18.9-9.6-39.1-27.7-60.1c-11.6-14.9-24.4-32.3-26.8-37.2
		c0.2-9.6,17.9-77,34.8-136.6c0.5-1.8,0.1-3.7-1-5.2c-1.1-1.5-2.9-2.4-4.7-2.4h-49.8l-11.1-26.7l38.3,16c1.8,0.8,3.9,0.6,5.6-0.5
		c1.6-1.1,2.6-2.9,2.6-4.9v-88.4c0-2-1-3.8-2.6-4.9c-1.6-1.1-3.7-1.3-5.6-0.5l-38.3,16l12.6-30.3c0.8-1.8,0.6-3.9-0.5-5.6
		c-1.1-1.6-2.9-2.6-4.9-2.6h-88.4c-2,0-3.8,1-4.9,2.6c-1.1,1.6-1.3,3.7-0.5,5.6l12,28.9l-36.7-15.3c-1.8-0.8-3.9-0.6-5.6,0.5
		c-1.6,1.1-2.6,2.9-2.6,4.9v88.4c0,2,1,3.8,2.6,4.9c1.6,1.1,3.7,1.3,5.6,0.5l37.4-15.6l-11.3,27h-49.8c-1.9,0-3.6,0.9-4.7,2.4
		c-1.1,1.5-1.5,3.4-1,5.2c16.9,59.6,34.7,126.9,34.8,136.6c-2.3,4.9-15.1,22.3-26.8,37.2c-18.1,21-27.4,41.2-27.7,60.1
		c0,1.6,0.6,3.1,1.7,4.2c1.1,1.1,2.6,1.8,4.2,1.8h25.7c6.8,23.1,30.6,33.9,31.7,34.4c0.8,0.3,1.6,0.5,2.4,0.5h3.1
		c-1.8,64.7-33,116.5-58.2,158.3c-16.1,26.7-30,49.7-32.1,69.8C1943.7,809.8,1961.7,824.4,1969.9,829.2z"/>
	<path fill="#4D4D4F" d="M1847.5,704c-25.2-41.8-56.4-93.6-58.2-158.3h3.1c0.8,0,1.7-0.2,2.4-0.5c1.1-0.5,24.8-11.3,31.7-34.4h25.7
		c1.6,0,3.1-0.6,4.2-1.8c1.1-1.1,1.7-2.7,1.7-4.2c-0.3-18.9-9.6-39.2-27.7-60.2c-1.1-1.3-2.8-2.1-4.5-2.1h-15.2
		c2.2-18.2,11.2-71.8,44.6-102.2c1.5-1.4,2.2-3.5,1.8-5.5c-0.4-2-1.8-3.7-3.7-4.4c-0.5-0.2-12-4.5-26.6-5.3
		c-2.7-13.5-13.2-49.7-49.1-65.3c0.2-1.6,0.3-3.2,0.3-4.9c0-23.8-19.4-43.2-43.2-43.2c-23.8,0-43.2,19.4-43.2,43.2
		c0,1.6,0.1,3.3,0.3,4.9c-35.9,15.6-46.3,51.8-49.1,65.3c-14.6,0.8-26.1,5.1-26.6,5.3c-1.9,0.7-3.3,2.4-3.7,4.4
		c-0.4,2,0.3,4.1,1.8,5.5c33.4,30.4,42.5,84,44.6,102.2h-15.2c-1.7,0-3.4,0.7-4.5,2.1c-18.1,21-27.5,41.3-27.7,60.2
		c0,1.6,0.6,3.1,1.7,4.2c1.1,1.1,2.6,1.8,4.2,1.8h25.7c6.8,23.1,30.6,33.9,31.7,34.4c0.8,0.3,1.6,0.5,2.4,0.5h3.1
		c-1.8,64.7-33,116.5-58.2,158.3c-16.1,26.7-30,49.7-32.1,69.8c-3.9,36,14.1,50.6,22.4,55.3v37.1c0,3.3,2.7,5.9,5.9,5.9h232.9
		c3.3,0,5.9-2.7,5.9-5.9v-37.1c8.2-4.7,26.3-19.4,22.4-55.3C1877.5,753.7,1863.6,730.7,1847.5,704z"/>
	<path fill="#4D4D4F" d="M1490.1,704c-25.2-41.8-56.4-93.6-58.2-158.3h3.1c0.8,0,1.7-0.2,2.4-0.5c1.1-0.5,26.8-12.2,32.5-37.3
		c2.5-11.2,0.5-23.1-5.8-35.5c0,0,0,0,0-0.1c-1.3-2.6-2.9-5.2-4.6-7.8c-0.2-0.4-0.4-0.7-0.7-1.1c-0.4-0.6-0.8-1.2-1.2-1.8
		c-0.4-0.6-0.8-1.1-1.2-1.7c-0.4-0.5-0.7-1-1.1-1.5c-0.4-0.5-0.8-1.1-1.2-1.6c9.2-7.5,25.5-26.8,25.5-68.5c0-18.5-7-37.7-20.9-56.9
		c-1.9-2.6-5.5-3.2-8.2-1.4l-42.1,29.3l30.4-44c1.6-2.4,1.3-5.6-0.7-7.6c-7.7-7.4-14.7-13.2-19.5-16.8c6-8.5,9.3-18.6,9.3-29
		c0-27.7-22.5-50.3-50.3-50.3c-27.7,0-50.3,22.5-50.3,50.3c0,10.5,3.3,20.5,9.3,29c-17.4,13.1-61.1,50.8-61.1,97.3
		c0,41.7,16.3,60.9,25.5,68.5c-0.4,0.5-0.8,1.1-1.2,1.6c-0.4,0.5-0.8,1-1.1,1.5c-0.4,0.6-0.8,1.1-1.2,1.7c-0.4,0.6-0.8,1.2-1.2,1.8
		c-0.2,0.4-0.5,0.7-0.7,1.1c-1.7,2.6-3.2,5.2-4.6,7.8c0,0,0,0.1,0,0.1c-6.3,12.4-8.3,24.2-5.8,35.5c5.6,25.1,31.4,36.8,32.5,37.3
		c0.8,0.3,1.6,0.5,2.4,0.5h3.1c-1.8,64.7-33,116.5-58.2,158.3c-16.1,26.7-30,49.7-32.1,69.8c-3.9,36,14.1,50.6,22.4,55.3v37.1
		c0,3.3,2.7,5.9,5.9,5.9H1494c3.3,0,5.9-2.7,5.9-5.9v-37.1c8.2-4.7,26.3-19.4,22.4-55.3C1520.1,753.7,1506.2,730.7,1490.1,704z"/>
	<path fill="#4D4D4F" d="M752.1,432.7h-69.8c-2.8,0-5.3,2-5.8,4.8L663,505.2h-10.9l7.8-65.9c0.2-1.7-0.3-3.4-1.5-4.6
		c-1.1-1.3-2.7-2-4.4-2h-94.3c-1.7,0-3.3,0.7-4.4,2c-1.1,1.3-1.7,3-1.5,4.6l7.8,65.9H551l-13.4-67.8c-0.6-2.8-3-4.8-5.8-4.8h-69.8
		c-1.8,0-3.5,0.8-4.7,2.3c-1.1,1.4-1.5,3.3-1.1,5.1l29.6,117.9c0.7,2.6,3,4.5,5.7,4.5h9.7l22.6,48c1,2.1,3.1,3.4,5.4,3.4h12.8
		c-1.5,61.3-26.7,87-49,109.8c-14.6,14.9-28.3,28.9-30.6,50.2c-3.9,36,14.1,50.6,22.4,55.3v37.1c0,3.3,2.7,5.9,5.9,5.9h232.9
		c3.3,0,5.9-2.7,5.9-5.9v-37.1c8.2-4.7,26.3-19.4,22.4-55.3c-2.3-21.3-16.1-35.4-30.6-50.2c-22.3-22.8-47.5-48.5-49-109.8h12.8
		c2.3,0,4.4-1.3,5.4-3.4l22.6-48h9.7c2.7,0,5.1-1.8,5.7-4.5L757.8,440c0.4-1.8,0-3.6-1.1-5.1C755.6,433.5,753.9,432.7,752.1,432.7z"
		/>
	<path fill="#4D4D4F" d="M1107.9,734.8c6.8-16.9,3.1-28.2-0.5-34.2l61.3-62.2c1.3-1.4,1.9-3.3,1.6-5.2c-0.3-1.9-1.5-3.5-3.3-4.3
		c-29.9-14.4-31.6-30.7-28.9-77.6c0.2-4.2,0.6-8.7,0.9-13.6c3.7-52,9.8-138.9-50.2-185.3C1022.4,301,948.8,321,940,325.8
		c-6.9,3.8-9.5,16.8-13.5,43.5c-1.3,8.4-2.7,18-3.9,20.8c-2.7,6.3-20.4,17.5-36.7,23.3c-32.2,1.7-57.9,21-68.8,51.7
		c-6.8,19-5.8,37.3,2.2,44.4c1.1,1,2.5,1.5,3.9,1.5H856c2.5,9.8,8.9,17.4,18,21.4c12.2,5.3,27.1,3.3,38.8-5.3
		c9.2-6.8,19.8-5.5,26.9-3.2c-25.6,21.5-106.8,93.3-111.6,143.4c-4.2,44.4,15.9,63.3,27.6,70.5c-9.4,11-15.8,21.8-17.3,36
		c-3.9,36,14.1,50.6,22.4,55.3v37.1c0,3.3,2.7,5.9,5.9,5.9h232.9c3.3,0,5.9-2.7,5.9-5.9v-37.1c8.2-4.7,26.3-19.4,22.4-55.3
		C1126.2,758.3,1118.8,746.8,1107.9,734.8z"/>
	<path fill="#4D4D4F" d="M2206.4,1562c-22.3-22.8-47.5-48.5-49-110c0.4-0.1,0.9-0.3,1.3-0.5c1.1-0.6,25.9-14,32.4-42.2
		c3.2-13.9,1.4-28.8-5.4-44.5c0,0,0-0.1-0.1-0.1c-0.5-1.1-1-2.2-1.5-3.3c-0.1-0.2-0.2-0.3-0.3-0.5c-1.4-2.9-2.9-5.7-4.6-8.6
		c-0.4-0.7-0.8-1.4-1.3-2.2c-0.4-0.6-0.7-1.2-1.1-1.8c-0.6-0.9-1.1-1.8-1.7-2.6c-0.3-0.5-0.6-1-1-1.4c-0.1-0.2-0.2-0.3-0.3-0.5
		c12.4-16.6,19.2-36.9,19.2-57.8c0-53.1-43.2-96.4-96.4-96.4s-96.4,43.2-96.4,96.4c0,20.8,6.8,41.2,19.2,57.8
		c-0.1,0.2-0.2,0.3-0.3,0.5c-0.4,0.5-0.7,1-1,1.6c-0.6,0.8-1.1,1.7-1.6,2.5c-0.4,0.6-0.8,1.3-1.2,1.9c-0.4,0.7-0.8,1.4-1.2,2.1
		c-1.7,2.9-3.3,5.8-4.7,8.7c-0.1,0.2-0.2,0.3-0.2,0.5c-0.5,1.1-1,2.2-1.5,3.3c0,0,0,0.1,0,0.1c-6.8,15.6-8.6,30.5-5.4,44.5
		c4.3,18.7,16.6,30.9,24.8,37.1c0,65.5-26.1,92.1-49.1,115.6c-14.6,14.9-28.3,28.9-30.6,50.2c-3.9,36,14.1,50.6,22.4,55.3v37.1
		c0,3.3,2.7,5.9,5.9,5.9h232.9c3.3,0,5.9-2.7,5.9-5.9v-37.1c8.2-4.7,26.3-19.4,22.4-55.3C2234.7,1590.9,2221,1576.8,2206.4,1562z"/>
	<path fill="#4D4D4F" d="M353.2,1542.4c-25.2-41.8-56.4-93.6-58.2-158.3h3.1c0.8,0,1.7-0.2,2.4-0.5c1.1-0.5,24.8-11.3,31.7-34.4H358
		c1.6,0,3.1-0.6,4.2-1.8c1.1-1.1,1.7-2.7,1.7-4.2c-0.3-18.9-9.6-39.1-27.7-60.1c-11.6-14.9-24.4-32.3-26.8-37.2
		c0.2-9.6,17.9-77,34.8-136.6c0.5-1.8,0.1-3.7-1-5.2c-1.1-1.5-2.9-2.4-4.7-2.4h-49.8l-11.3-27l37.4,15.6c1.8,0.8,3.9,0.6,5.6-0.5
		c1.6-1.1,2.6-2.9,2.6-4.9v-88.4c0-2-1-3.8-2.6-4.9c-1.6-1.1-3.7-1.3-5.6-0.5l-36.7,15.3l12-28.9c0.8-1.8,0.6-3.9-0.5-5.6
		c-1.1-1.6-2.9-2.6-4.9-2.6h-88.4c-2,0-3.8,1-4.9,2.6c-1.1,1.6-1.3,3.7-0.5,5.6l12.6,30.3l-38.3-16c-1.8-0.8-3.9-0.6-5.6,0.5
		c-1.6,1.1-2.6,2.9-2.6,4.9v88.4c0,2,1,3.8,2.6,4.9c1.6,1.1,3.7,1.3,5.6,0.5l38.3-16l-11.1,26.7h-49.8c-1.9,0-3.6,0.9-4.7,2.4
		c-1.1,1.5-1.5,3.4-1,5.2c16.9,59.6,34.7,126.9,34.8,136.6c-2.3,4.9-15.1,22.3-26.8,37.2c-18.1,21-27.4,41.2-27.7,60.1
		c0,1.6,0.6,3.1,1.7,4.2c1.1,1.1,2.6,1.8,4.2,1.8h25.7c6.8,23.1,30.6,33.9,31.7,34.4c0.8,0.3,1.6,0.5,2.4,0.5h3.1
		c-1.8,64.7-33,116.5-58.2,158.3c-16.1,26.7-30,49.7-32.1,69.8c-3.9,36,14.1,50.6,22.4,55.3v37.1c0,3.3,2.7,5.9,5.9,5.9h232.9
		c3.3,0,5.9-2.7,5.9-5.9v-37.1c8.2-4.7,26.3-19.4,22.4-55.3C383.2,1592.1,369.3,1569.1,353.2,1542.4z"/>
	<path fill="#4D4D4F" d="M710.6,1542.4c-25.2-41.8-56.4-93.6-58.2-158.3h3.1c0.8,0,1.7-0.2,2.4-0.5c1.1-0.5,24.8-11.3,31.7-34.4
		h25.7c1.6,0,3.1-0.6,4.2-1.8c1.1-1.1,1.7-2.7,1.7-4.2c-0.3-18.9-9.6-39.2-27.7-60.2c-1.1-1.3-2.8-2.1-4.5-2.1h-15.2
		c2.2-18.2,11.2-71.8,44.6-102.2c1.5-1.4,2.2-3.5,1.8-5.5c-0.4-2-1.8-3.7-3.7-4.4c-0.5-0.2-12-4.5-26.6-5.3
		c-2.7-13.5-13.2-49.7-49.1-65.3c0.2-1.6,0.3-3.2,0.3-4.9c0-23.8-19.4-43.2-43.2-43.2s-43.2,19.4-43.2,43.2c0,1.6,0.1,3.3,0.3,4.9
		c-35.9,15.6-46.3,51.8-49.1,65.3c-14.6,0.8-26.1,5.1-26.6,5.3c-1.9,0.7-3.3,2.4-3.7,4.4c-0.4,2,0.3,4.1,1.8,5.5
		c33.4,30.4,42.5,84,44.6,102.2H507c-1.7,0-3.4,0.7-4.5,2.1c-18.1,21-27.5,41.3-27.7,60.2c0,1.6,0.6,3.1,1.7,4.2
		c1.1,1.1,2.6,1.8,4.2,1.8h25.7c6.8,23.1,30.6,33.9,31.7,34.4c0.8,0.3,1.6,0.5,2.4,0.5h3.1c-1.8,64.7-33,116.5-58.2,158.3
		c-16.1,26.7-30,49.7-32.1,69.8c-3.9,36,14.1,50.6,22.4,55.3v37.1c0,3.3,2.7,5.9,5.9,5.9h232.9c3.3,0,5.9-2.7,5.9-5.9v-37.1
		c8.2-4.7,26.3-19.4,22.4-55.3C740.6,1592.1,726.7,1569.1,710.6,1542.4z"/>
	<path fill="#4D4D4F" d="M1068,1542.4c-25.2-41.8-56.4-93.6-58.2-158.3h3.1c0.8,0,1.7-0.2,2.4-0.5c1.1-0.5,26.8-12.2,32.5-37.3
		c2.5-11.2,0.5-23.1-5.8-35.5c0,0,0-0.1,0-0.1c-1.3-2.6-2.8-5.2-4.6-7.8c-0.2-0.4-0.5-0.7-0.7-1.1c-0.4-0.6-0.8-1.2-1.2-1.8
		c-0.4-0.6-0.8-1.1-1.2-1.7c-0.4-0.5-0.7-1-1.1-1.5c-0.4-0.5-0.8-1.1-1.2-1.6c9.2-7.5,25.5-26.8,25.5-68.5
		c0-46.5-43.7-84.1-61.1-97.3c6-8.5,9.3-18.5,9.3-29c0-27.7-22.5-50.3-50.3-50.3c-27.7,0-50.3,22.5-50.3,50.3
		c0,10.5,3.3,20.6,9.3,29c-4.7,3.6-11.8,9.3-19.5,16.8c-2.1,2-2.4,5.2-0.7,7.6l30.4,44l-42.1-29.3c-2.6-1.8-6.3-1.2-8.2,1.4
		c-13.9,19.2-20.9,38.3-20.9,56.9c0,41.7,16.3,60.9,25.5,68.5c-0.4,0.5-0.8,1.1-1.2,1.6c-0.4,0.5-0.8,1-1.1,1.5
		c-0.4,0.6-0.8,1.1-1.2,1.7c-0.4,0.6-0.8,1.2-1.2,1.8c-0.2,0.4-0.5,0.7-0.7,1.1c-1.7,2.6-3.2,5.2-4.6,7.8c0,0,0,0,0,0.1
		c-6.3,12.4-8.3,24.3-5.8,35.5c5.6,25.1,31.4,36.8,32.5,37.3c0.8,0.3,1.6,0.5,2.4,0.5h3.1c-1.8,64.7-33,116.5-58.2,158.3
		c-16.1,26.7-30,49.7-32.1,69.8c-3.9,36,14.1,50.6,22.4,55.3v37.1c0,3.3,2.7,5.9,5.9,5.9h232.9c3.3,0,5.9-2.7,5.9-5.9v-37.1
		c8.2-4.7,26.3-19.4,22.4-55.3C1097.9,1592.1,1084.1,1569.1,1068,1542.4z"/>
	<path fill="#4D4D4F" d="M1871.1,1271.1h-69.8c-2.8,0-5.3,2-5.8,4.8l-13.4,67.8h-10.9l7.8-65.9c0.2-1.7-0.3-3.4-1.5-4.6
		c-1.1-1.3-2.7-2-4.4-2h-94.3c-1.7,0-3.3,0.7-4.4,2c-1.1,1.3-1.7,3-1.5,4.6l7.8,65.9h-10.9l-13.4-67.8c-0.6-2.8-3-4.8-5.8-4.8h-69.8
		c-1.8,0-3.5,0.8-4.7,2.3c-1.1,1.4-1.5,3.3-1.1,5.1l29.6,117.9c0.7,2.6,3,4.5,5.7,4.5h9.7l22.6,48c1,2.1,3.1,3.4,5.4,3.4h12.8
		c-1.5,61.3-26.7,87-49,109.8c-14.6,14.9-28.3,28.9-30.6,50.2c-3.9,36,14.1,50.6,22.4,55.3v37.1c0,3.3,2.7,5.9,5.9,5.9h232.9
		c3.3,0,5.9-2.7,5.9-5.9v-37.1c8.2-4.7,26.3-19.4,22.4-55.3c-2.3-21.3-16.1-35.4-30.6-50.2c-22.3-22.8-47.5-48.5-49-109.8h12.8
		c2.3,0,4.4-1.3,5.4-3.4l22.6-48h9.7c2.7,0,5.1-1.8,5.7-4.5l29.6-117.9c0.4-1.8,0-3.6-1.1-5.1
		C1874.6,1271.9,1872.9,1271.1,1871.1,1271.1z"/>
	<path fill="#4D4D4F" d="M1447,1251.9c-16.3-5.8-34-17-36.7-23.3c-1.2-2.8-2.6-12.4-3.9-20.8c-4-26.7-6.6-39.7-13.5-43.5
		c-8.8-4.8-82.4-24.8-148.9,26.6c-60,46.4-53.9,133.4-50.2,185.3c0.3,4.9,0.7,9.5,0.9,13.6c2.7,46.9,1,63.3-28.9,77.6
		c-1.7,0.8-2.9,2.4-3.3,4.3c-0.3,1.9,0.3,3.8,1.6,5.2l61.3,62.2c-3.6,5.9-7.3,17.2-0.5,34.2c-10.8,12-18.3,23.5-20,39
		c-3.9,36,14.1,50.6,22.4,55.3v37.1c0,3.3,2.7,5.9,5.9,5.9h232.9c3.3,0,5.9-2.7,5.9-5.9v-37.1c8.2-4.7,26.3-19.4,22.4-55.3
		c-1.5-14.2-7.9-25.1-17.3-36c11.7-7.2,31.8-26.1,27.6-70.5c-4.8-50.1-86-121.9-111.6-143.4c7.1-2.2,17.7-3.6,26.9,3.2
		c11.7,8.6,26.6,10.7,38.8,5.3c9.1-4,15.5-11.6,18-21.4h32.7c1.4,0,2.8-0.5,3.9-1.5c8.1-7.2,9-25.4,2.2-44.4
		C1504.9,1272.8,1479.2,1253.5,1447,1251.9z"/>
	<g>
		<g>
			<rect x="108.2" y="851.4" fill="#FFFFFF" width="221" height="28.9"/>
			<path fill="#FFFFFF" d="M292.4,551.4C292.4,551.4,292.4,551.4,292.4,551.4c-0.4-0.8-0.7-1.6-1.1-2.4c-0.1-0.1-0.1-0.2-0.2-0.4
				c-0.6-1.3-1.2-2.6-1.9-3.9c-0.2-0.4-0.4-0.8-0.7-1.3c-0.3-0.6-0.6-1.1-0.9-1.7c-0.4-0.7-0.8-1.4-1.2-2.1c-0.3-0.5-0.6-1-0.9-1.6
				c-0.5-0.9-1.1-1.7-1.6-2.6c-0.2-0.4-0.5-0.7-0.7-1.1c-0.7-1.1-1.5-2.2-2.3-3.4H147.5c-0.8,1.1-1.5,2.3-2.3,3.4
				c-0.2,0.4-0.5,0.7-0.7,1.1c-0.6,0.9-1.1,1.7-1.6,2.6c-0.3,0.5-0.6,1-0.9,1.5c-0.4,0.7-0.8,1.4-1.2,2.2c-0.3,0.6-0.6,1.1-0.9,1.7
				c-0.2,0.4-0.4,0.8-0.7,1.3c-0.7,1.3-1.3,2.6-1.9,3.9c-0.1,0.1-0.1,0.2-0.2,0.4c-0.4,0.8-0.7,1.6-1.1,2.4c0,0,0,0,0,0
				c-2.8,6.6-4.6,13-5.4,19.1h167.2C297,564.4,295.2,558,292.4,551.4z"/>
			<path fill="#FFFFFF" d="M281.1,519.2c11.4-14.7,17.6-33,17.6-51.7c0-46.6-37.9-84.5-84.5-84.5s-84.5,37.9-84.5,84.5
				c0,18.7,6.2,36.9,17.6,51.7H281.1z"/>
			<path fill="#FFFFFF" d="M159.6,621.9h112.1c4.5-2.8,20.8-14.1,25.3-33.9c0.4-1.9,0.7-3.7,0.9-5.6H130.5c0.2,1.9,0.5,3.8,0.9,5.6
				c4.5,19.8,20.8,31.1,25.3,33.9H159.6z"/>
			<path fill="#FFFFFF" d="M324.3,751.9c-22.7-23.2-50.8-51.8-52.4-118.1H165.4c-1.6,66.2-29.7,94.9-52.4,118.1
				c-14.2,14.5-25.4,26-27.3,43.2c-3.5,32.2,13.7,42.5,17.7,44.5h230.4c4.1-2,21.2-12.3,17.7-44.5
				C349.7,777.8,338.5,766.4,324.3,751.9z"/>
			<path d="M332.8,743.6c-23-23.5-49-50-49.1-115.6c8.2-6.3,20.5-18.5,24.8-37.1c3.2-13.9,1.4-28.8-5.4-44.5c0,0,0-0.1,0-0.1
				c-0.5-1.1-1-2.2-1.5-3.3c-0.1-0.2-0.2-0.3-0.2-0.5c-1.4-2.9-2.9-5.8-4.7-8.7c-0.4-0.7-0.8-1.4-1.2-2.1c-0.4-0.6-0.8-1.3-1.2-1.9
				c-0.5-0.8-1.1-1.7-1.6-2.5c-0.3-0.5-0.7-1-1-1.6c-0.1-0.2-0.2-0.3-0.3-0.5c12.4-16.6,19.2-36.9,19.2-57.8
				c0-53.1-43.2-96.4-96.4-96.4s-96.4,43.2-96.4,96.4c0,20.8,6.8,41.2,19.2,57.8c-0.1,0.2-0.2,0.3-0.3,0.5c-0.3,0.5-0.6,1-1,1.4
				c-0.6,0.9-1.2,1.8-1.7,2.6c-0.4,0.6-0.8,1.2-1.1,1.8c-0.4,0.7-0.9,1.4-1.3,2.2c-1.7,2.9-3.2,5.8-4.6,8.6
				c-0.1,0.2-0.2,0.3-0.3,0.5c-0.5,1.1-1,2.2-1.5,3.3c0,0,0,0.1-0.1,0.1c-6.8,15.6-8.6,30.5-5.4,44.5c6.6,28.2,31.4,41.7,32.4,42.2
				c0.4,0.2,0.8,0.4,1.3,0.5c-1.5,61.5-26.7,87.2-49,110C90,758.4,76.3,772.5,74,793.8c-3.9,36,14.1,50.6,22.4,55.3v37.1
				c0,3.3,2.7,5.9,5.9,5.9h232.9c3.3,0,5.9-2.7,5.9-5.9v-37.1c8.2-4.7,26.3-19.4,22.4-55.3C361.1,772.5,347.3,758.4,332.8,743.6z
				 M129.7,467.5c0-46.6,37.9-84.5,84.5-84.5s84.5,37.9,84.5,84.5c0,18.7-6.2,36.9-17.6,51.7H147.3
				C135.9,504.5,129.7,486.2,129.7,467.5z M136,551.4C136,551.4,136,551.4,136,551.4c0.3-0.8,0.7-1.6,1.1-2.4
				c0.1-0.1,0.1-0.2,0.2-0.4c0.6-1.3,1.2-2.6,1.9-3.9c0.2-0.4,0.4-0.8,0.7-1.3c0.3-0.6,0.6-1.1,0.9-1.7c0.4-0.7,0.8-1.4,1.2-2.2
				c0.3-0.5,0.6-1,0.9-1.5c0.5-0.9,1.1-1.7,1.6-2.6c0.2-0.4,0.5-0.7,0.7-1.1c0.7-1.1,1.5-2.2,2.3-3.4h133.4c0.8,1.1,1.5,2.3,2.3,3.4
				c0.2,0.4,0.5,0.7,0.7,1.1c0.6,0.9,1.1,1.7,1.6,2.6c0.3,0.5,0.6,1.1,0.9,1.6c0.4,0.7,0.8,1.4,1.2,2.1c0.3,0.6,0.6,1.1,0.9,1.7
				c0.2,0.4,0.4,0.8,0.7,1.3c0.7,1.3,1.3,2.6,1.9,3.9c0.1,0.1,0.1,0.2,0.2,0.4c0.4,0.8,0.7,1.6,1.1,2.4c0,0,0,0,0,0
				c2.8,6.6,4.6,13,5.4,19.1H130.6C131.4,564.4,133.2,558,136,551.4z M131.4,588.1c-0.4-1.9-0.7-3.7-0.9-5.6h167.4
				c-0.2,1.9-0.5,3.8-0.9,5.6c-4.5,19.8-20.8,31.1-25.3,33.9H159.6h-2.9C152.2,619.1,135.9,607.9,131.4,588.1z M329.2,880.4h-221
				v-28.9h221V880.4z M333.9,839.6H103.5c-4-1.9-21.2-12.3-17.7-44.5c1.9-17.3,13.1-28.7,27.3-43.2c22.7-23.2,50.8-51.8,52.4-118.1
				h106.5c1.6,66.2,29.7,94.9,52.4,118.1c14.2,14.5,25.4,26,27.3,43.2C355.1,827.2,338,837.6,333.9,839.6z"/>
		</g>
		<g>
			<path fill="#FFFFFF" d="M2127.7,431.1c-1-2.8-2.3-6.2,16.3-76.2c6.4-24.1,13.1-48,16.4-59.7h-45.9h0h-88.4h-45.9
				c3.3,11.8,10,35.6,16.4,59.7c18.6,69.9,17.3,73.4,16.3,76.2c-2,5.4-13.4,20.9-21.5,31.5h157.9
				C2141.2,452,2129.8,436.5,2127.7,431.1z"/>
			<path fill="#FFFFFF" d="M2149.3,530.8h-158.1c5.6,13.4,19,21.1,22.9,23.1h112.3C2130.3,551.9,2143.7,544.2,2149.3,530.8z"/>
			<path fill="#FFFFFF" d="M2047,240.7c1.6,1.1,2.6,2.9,2.6,4.9v1.4c0,0.8-0.2,1.6-0.5,2.3l-14.2,34h70.6l-14.2-34
				c-0.3-0.7-0.5-1.5-0.5-2.3V246c0-2,1-3.8,2.6-4.9c1.6-1.1,3.7-1.3,5.6-0.5l42.8,17.8v-70.6l-42.8,17.8c-1.8,0.8-3.9,0.6-5.6-0.5
				c-1.6-1.1-2.6-2.9-2.6-4.9v-1.2c0-0.8,0.2-1.6,0.5-2.3l14.2-34H2035l14.2,34c0.9,2.2,0.4,4.8-1.3,6.5c-1.7,1.7-4.2,2.2-6.5,1.3
				l-41.8-17.4v70.6l41.8-17.4C2043.2,239.4,2045.3,239.7,2047,240.7z"/>
			<path fill="#FFFFFF" d="M2181.2,519c-1.9-13.8-9.5-28.8-22.6-44.5H1982c-13.2,15.8-20.8,30.7-22.6,44.5h24h173.8H2181.2z"/>
			<path fill="#FFFFFF" d="M2172.7,730.1c-26-43.1-58.1-96.4-59.9-164.4h-85c-1.8,67.9-33.9,121.3-59.9,164.4
				c-15.4,25.5-28.6,47.5-30.5,65c-3.5,32.2,13.7,42.5,17.7,44.5h230.4c4.1-2,21.2-12.3,17.7-44.5
				C2201.3,777.6,2188.1,755.6,2172.7,730.1z"/>
			<rect x="1959.8" y="851.4" fill="#FFFFFF" width="221" height="28.9"/>
			<path d="M2182.9,724c-25.2-41.8-56.4-93.6-58.2-158.3h3.1c0.8,0,1.7-0.2,2.4-0.5c1.1-0.5,24.8-11.3,31.7-34.4h25.7
				c1.6,0,3.1-0.6,4.2-1.8c1.1-1.1,1.7-2.7,1.7-4.2c-0.3-18.9-9.6-39.1-27.7-60.1c-11.6-14.9-24.4-32.3-26.8-37.2
				c0.2-9.6,17.9-77,34.8-136.6c0.5-1.8,0.1-3.7-1-5.2c-1.1-1.5-2.9-2.4-4.7-2.4h-49.8l-11.1-26.7l38.3,16c1.8,0.8,3.9,0.6,5.6-0.5
				c1.6-1.1,2.6-2.9,2.6-4.9v-88.4c0-2-1-3.8-2.6-4.9c-1.6-1.1-3.7-1.3-5.6-0.5l-38.3,16l12.6-30.3c0.8-1.8,0.6-3.9-0.5-5.6
				c-1.1-1.6-2.9-2.6-4.9-2.6h-88.4c-2,0-3.8,1-4.9,2.6c-1.1,1.6-1.3,3.7-0.5,5.6l12,28.9l-36.7-15.3c-1.8-0.8-3.9-0.6-5.6,0.5
				c-1.6,1.1-2.6,2.9-2.6,4.9v88.4c0,2,1,3.8,2.6,4.9c1.6,1.1,3.7,1.3,5.6,0.5l37.4-15.6l-11.3,27h-49.8c-1.9,0-3.6,0.9-4.7,2.4
				c-1.1,1.5-1.5,3.4-1,5.2c16.9,59.6,34.7,126.9,34.8,136.6c-2.3,4.9-15.1,22.3-26.8,37.2c-18.1,21-27.4,41.2-27.7,60.1
				c0,1.6,0.6,3.1,1.7,4.2c1.1,1.1,2.6,1.8,4.2,1.8h25.7c6.8,23.1,30.6,33.9,31.7,34.4c0.8,0.3,1.6,0.5,2.4,0.5h3.1
				c-1.8,64.7-33,116.5-58.2,158.3c-16.1,26.7-30,49.7-32.1,69.8c-3.9,36,14.1,50.6,22.4,55.3v37.1c0,3.3,2.7,5.9,5.9,5.9h232.9
				c3.3,0,5.9-2.7,5.9-5.9v-37.1c8.2-4.7,26.3-19.4,22.4-55.3C2212.8,773.7,2198.9,750.7,2182.9,724z M1999.7,257.6V187l41.8,17.4
				c2.2,0.9,4.8,0.4,6.5-1.3c1.7-1.7,2.2-4.2,1.3-6.5l-14.2-34h70.6l-14.2,34c-0.3,0.7-0.5,1.5-0.5,2.3v1.2c0,2,1,3.8,2.6,4.9
				c1.6,1.1,3.7,1.3,5.6,0.5l42.8-17.8v70.6l-42.8-17.8c-1.8-0.8-3.9-0.6-5.6,0.5c-1.6,1.1-2.6,2.9-2.6,4.9v1.2
				c0,0.8,0.2,1.6,0.5,2.3l14.2,34H2035l14.2-34c0.3-0.7,0.5-1.5,0.5-2.3v-1.4c0-2-1-3.8-2.6-4.9c-1.6-1.1-3.7-1.3-5.6-0.5
				L1999.7,257.6z M2012.9,431.1c1-2.8,2.3-6.3-16.3-76.2c-6.4-24.1-13.1-48-16.4-59.7h45.9h88.4h0h45.9
				c-3.3,11.8-10,35.6-16.4,59.7c-18.6,69.9-17.3,73.4-16.3,76.2c2,5.4,13.4,20.9,21.5,31.5h-157.9
				C1999.4,452,2010.8,436.5,2012.9,431.1z M1959.4,519c1.9-13.8,9.5-28.8,22.6-44.5h176.5c13.2,15.8,20.8,30.7,22.6,44.5h-24
				h-173.8H1959.4z M2014.2,553.9c-3.8-2-17.2-9.6-22.9-23.1h158.1c-5.6,13.3-19,21.1-22.9,23.1H2014.2z M2180.8,880.4h-221v-28.9
				h221V880.4z M2185.5,839.6h-230.4c-4-1.9-21.2-12.3-17.7-44.5c1.9-17.5,15.2-39.5,30.5-65c26-43.1,58.1-96.4,59.9-164.4h85
				c1.8,67.9,33.9,121.3,59.9,164.4c15.4,25.5,28.6,47.5,30.5,65C2206.7,827.2,2189.6,837.6,2185.5,839.6z"/>
		</g>
		<g>
			<path fill="#FFFFFF" d="M1792,530.8h-158.1c5.6,13.4,19,21.1,22.9,23.1h112.3C1772.9,551.9,1786.3,544.2,1792,530.8z"/>
			<path fill="#FFFFFF" d="M1815.4,730.1c-26-43.1-58.1-96.4-59.9-164.4h-85c-1.8,67.9-33.9,121.3-59.9,164.4
				c-15.4,25.5-28.6,47.5-30.5,65c-3.5,32.2,13.7,42.5,17.7,44.5h230.4c4.1-2,21.2-12.3,17.7-44.5
				C1844,777.6,1830.7,755.6,1815.4,730.1z"/>
			<path fill="#FFFFFF" d="M1823.8,519c-1.9-13.8-9.5-28.8-22.6-44.5h-19h-138.5h-19c-13.2,15.8-20.8,30.7-22.6,44.5h24h173.8
				H1823.8z"/>
			<path fill="#FFFFFF" d="M1776.8,462.6c1.8-17.1,9.8-68.9,41.3-103.6c-4.7-1.1-10.9-2-17.5-2.1c0,0,0,0,0,0c-0.2,0-0.5,0-0.7,0
				c-0.1,0-0.3,0-0.4,0c-16.7,0.1-29,6.3-36.4,18.3c-1,1.7-2.8,2.7-4.8,2.8c-2,0.1-3.8-0.8-5-2.3c-0.2-0.2-18.7-24.4-40.4-27.2
				c-21.6,2.8-40.2,26.9-40.4,27.2c-1.2,1.6-3.1,2.4-5,2.3c-2-0.1-3.7-1.1-4.8-2.8c-7.4-12-19.7-18.2-36.4-18.3c-0.1,0-0.3,0-0.4,0
				c-0.2,0-0.5,0-0.7,0c0,0,0,0,0,0c-6.6,0-12.8,1-17.5,2.1c31.5,34.7,39.5,86.5,41.3,103.6H1776.8z"/>
			<path fill="#FFFFFF" d="M1668.2,362.6c8-8.6,24.5-23.8,44.1-25.9c0.4,0,0.9,0,1.3,0c19.6,2.1,36.1,17.3,44.1,25.9
				c8.5-9.9,20.4-15.8,35.1-17.2c-3-12.6-12.6-40.9-40-53.8c-6.5,15.6-21.9,26.6-39.8,26.6c-17.9,0-33.3-11-39.8-26.6
				c-27.5,13-37,41.2-40,53.8C1647.8,346.9,1659.7,352.7,1668.2,362.6z"/>
			<path fill="#FFFFFF" d="M1712.9,306.3c17.3,0,31.3-14,31.3-31.3c0-17.3-14-31.3-31.3-31.3c-17.3,0-31.3,14-31.3,31.3
				C1681.6,292.3,1695.7,306.3,1712.9,306.3z"/>
			<rect x="1602.4" y="851.4" fill="#FFFFFF" width="221" height="28.9"/>
			<path d="M1825.5,724c-25.2-41.8-56.4-93.6-58.2-158.3h3.1c0.8,0,1.7-0.2,2.4-0.5c1.1-0.5,24.8-11.3,31.7-34.4h25.7
				c1.6,0,3.1-0.6,4.2-1.8c1.1-1.1,1.7-2.7,1.7-4.2c-0.3-18.9-9.6-39.2-27.7-60.2c-1.1-1.3-2.8-2.1-4.5-2.1h-15.2
				c2.2-18.2,11.2-71.8,44.6-102.2c1.5-1.4,2.2-3.5,1.8-5.5c-0.4-2-1.8-3.7-3.7-4.4c-0.5-0.2-12-4.5-26.6-5.3
				c-2.7-13.5-13.2-49.7-49.1-65.3c0.2-1.6,0.3-3.2,0.3-4.9c0-23.8-19.4-43.2-43.2-43.2s-43.2,19.4-43.2,43.2c0,1.6,0.1,3.3,0.3,4.9
				c-35.9,15.6-46.3,51.8-49.1,65.3c-14.6,0.8-26.1,5.1-26.6,5.3c-1.9,0.7-3.3,2.4-3.7,4.4c-0.4,2,0.3,4.1,1.8,5.5
				c33.4,30.4,42.5,84,44.6,102.2h-15.2c-1.7,0-3.4,0.7-4.5,2.1c-18.1,21-27.5,41.3-27.7,60.2c0,1.6,0.6,3.1,1.7,4.2
				c1.1,1.1,2.6,1.8,4.2,1.8h25.7c6.8,23.1,30.6,33.9,31.7,34.4c0.8,0.3,1.6,0.5,2.4,0.5h3.1c-1.8,64.7-33,116.5-58.2,158.3
				c-16.1,26.7-30,49.7-32.1,69.8c-3.9,36,14.1,50.6,22.4,55.3v37.1c0,3.3,2.7,5.9,5.9,5.9h232.9c3.3,0,5.9-2.7,5.9-5.9v-37.1
				c8.2-4.7,26.3-19.4,22.4-55.3C1855.5,773.7,1841.6,750.7,1825.5,724z M1712.9,243.7c17.3,0,31.3,14,31.3,31.3
				c0,17.3-14,31.3-31.3,31.3c-17.3,0-31.3-14-31.3-31.3C1681.6,257.8,1695.7,243.7,1712.9,243.7z M1673.1,291.6
				c6.5,15.6,21.9,26.6,39.8,26.6c17.9,0,33.3-11,39.8-26.6c27.4,13,37,41.2,40,53.8c-14.7,1.4-26.6,7.3-35.1,17.2
				c-8-8.6-24.5-23.8-44.1-25.9c-0.4,0-0.9,0-1.3,0c-19.6,2.1-36.1,17.3-44.1,25.9c-8.5-9.9-20.4-15.8-35.1-17.2
				C1636.1,332.8,1645.6,304.6,1673.1,291.6z M1607.8,359c4.7-1.1,10.9-2,17.5-2.1c0,0,0,0,0,0c0.2,0,0.5,0,0.7,0c0.1,0,0.3,0,0.4,0
				c16.7,0.1,29,6.3,36.4,18.3c1,1.7,2.8,2.7,4.8,2.8c1.9,0.1,3.8-0.8,5-2.3c0.2-0.2,18.7-24.4,40.4-27.2
				c21.6,2.8,40.2,26.9,40.4,27.2c1.2,1.6,3,2.5,5,2.3c2-0.1,3.7-1.1,4.8-2.8c7.4-12,19.7-18.2,36.4-18.3c0.1,0,0.3,0,0.4,0
				c0.2,0,0.5,0,0.7,0c0,0,0,0,0,0c6.6,0,12.8,1,17.5,2.1c-31.5,34.7-39.5,86.5-41.3,103.6h-127.7
				C1647.3,445.5,1639.3,393.7,1607.8,359z M1602,519c1.9-13.8,9.5-28.8,22.6-44.5h19h138.5h19c13.2,15.8,20.8,30.7,22.6,44.5h-24
				H1626H1602z M1656.8,553.9c-3.8-2-17.2-9.6-22.9-23.1H1792c-5.6,13.3-19,21.1-22.9,23.1H1656.8z M1823.4,880.4h-221v-28.9h221
				V880.4z M1828.1,839.6h-230.4c-4-1.9-21.2-12.3-17.7-44.5c1.9-17.5,15.2-39.5,30.5-65c26-43.1,58.1-96.4,59.9-164.4h85
				c1.8,67.9,33.9,121.3,59.9,164.4c15.4,25.5,28.6,47.5,30.5,65C1849.4,827.2,1832.3,837.6,1828.1,839.6z"/>
		</g>
		<g>
			<path fill="#FFFFFF" d="M1385.8,305.8c5.3-6.8,8.2-15,8.2-23.6c0-21.2-17.2-38.4-38.4-38.4c-21.2,0-38.4,17.2-38.4,38.4
				c0,8.6,2.9,16.9,8.2,23.6H1385.8z"/>
			<rect x="1245" y="851.4" fill="#FFFFFF" width="221" height="28.9"/>
			<path fill="#FFFFFF" d="M1403.9,553.9h7.8c4.4-2.3,21-11.9,24.7-28.6c0.1-0.5,0.2-1.1,0.3-1.6h-162.2c0.1,0.6,0.2,1.1,0.3,1.7
				c3.8,16.8,20.3,26.3,24.7,28.5h7.8H1403.9z"/>
			<path fill="#FFFFFF" d="M1289.2,469.8h132.6c4.8-3,23.9-17.7,23.9-61.3c0-14.5-5.2-29.7-15.4-45.1l-64.1,44.6
				c-2.3,1.6-5.5,1.4-7.6-0.7c-2-2-2.3-5.2-0.7-7.6l46.1-66.7c-8.5-7.9-15.8-13.3-18.8-15.4h-59.6c-8.8,6.3-60.4,44.9-60.4,90.8
				C1265.4,452.1,1284.6,466.8,1289.2,469.8z"/>
			<path fill="#FFFFFF" d="M1431.3,497.2C1431.3,497.2,1431.3,497.2,1431.3,497.2c-1.3-2.5-2.8-5-4.5-7.5c-0.1-0.2-0.3-0.4-0.4-0.6
				c-0.7-1-1.4-2-2.2-3c-0.2-0.3-0.4-0.6-0.6-0.9c-0.9-1.2-1.9-2.4-2.9-3.6h-130.3c-1,1.2-2,2.4-2.9,3.6c-0.2,0.3-0.4,0.6-0.7,0.9
				c-0.7,1-1.4,2-2.1,2.9c-0.2,0.2-0.3,0.5-0.5,0.7c-1.7,2.5-3.2,5-4.5,7.4c0,0,0,0.1-0.1,0.1c-2.6,5-4.4,9.9-5.2,14.6h161.9
				C1435.7,507.1,1433.9,502.3,1431.3,497.2z"/>
			<path fill="#FFFFFF" d="M1458,730.1c-26-43.1-58.1-96.4-59.9-164.4h-85c-1.8,67.9-33.9,121.3-59.9,164.4
				c-15.4,25.5-28.6,47.5-30.5,65c-3.5,32.2,13.7,42.5,17.7,44.5h230.4c4.1-2,21.2-12.3,17.7-44.5
				C1486.6,777.6,1473.3,755.6,1458,730.1z"/>
			<path d="M1468.1,724c-25.2-41.8-56.4-93.6-58.2-158.3h3.1c0.8,0,1.7-0.2,2.4-0.5c1.1-0.5,26.8-12.2,32.5-37.3
				c2.5-11.2,0.5-23.1-5.8-35.5c0,0,0,0,0-0.1c-1.3-2.6-2.9-5.2-4.6-7.8c-0.2-0.4-0.4-0.7-0.7-1.1c-0.4-0.6-0.8-1.2-1.2-1.8
				c-0.4-0.6-0.8-1.1-1.2-1.7c-0.4-0.5-0.7-1-1.1-1.5c-0.4-0.5-0.8-1.1-1.2-1.6c9.2-7.5,25.5-26.8,25.5-68.5
				c0-18.5-7-37.7-20.9-56.9c-1.9-2.6-5.5-3.2-8.2-1.4l-42.1,29.3l30.4-44c1.6-2.4,1.3-5.6-0.7-7.6c-7.7-7.4-14.7-13.2-19.5-16.8
				c6-8.5,9.3-18.6,9.3-29c0-27.7-22.5-50.3-50.3-50.3c-27.7,0-50.3,22.5-50.3,50.3c0,10.5,3.3,20.5,9.3,29
				c-17.4,13.1-61.1,50.8-61.1,97.3c0,41.7,16.3,60.9,25.5,68.5c-0.4,0.5-0.8,1.1-1.2,1.6c-0.4,0.5-0.8,1-1.1,1.5
				c-0.4,0.6-0.8,1.1-1.2,1.7c-0.4,0.6-0.8,1.2-1.2,1.8c-0.2,0.4-0.5,0.7-0.7,1.1c-1.7,2.6-3.2,5.2-4.6,7.8c0,0,0,0.1,0,0.1
				c-6.3,12.4-8.3,24.2-5.8,35.5c5.6,25.1,31.4,36.8,32.5,37.3c0.8,0.3,1.6,0.5,2.4,0.5h3.1c-1.8,64.7-33,116.5-58.2,158.3
				c-16.1,26.7-30,49.7-32.1,69.8c-3.9,36,14.1,50.6,22.4,55.3v37.1c0,3.3,2.7,5.9,5.9,5.9H1472c3.3,0,5.9-2.7,5.9-5.9v-37.1
				c8.2-4.7,26.3-19.4,22.4-55.3C1498.1,773.7,1484.2,750.7,1468.1,724z M1355.6,243.7c21.2,0,38.4,17.2,38.4,38.4
				c0,8.6-2.9,16.9-8.2,23.6h-60.5c-5.3-6.8-8.2-15-8.2-23.6C1317.1,261,1334.4,243.7,1355.6,243.7z M1265.4,408.4
				c0-45.9,51.6-84.5,60.4-90.8h59.6c3,2.1,10.2,7.5,18.8,15.4l-46.1,66.7c-1.6,2.4-1.3,5.5,0.7,7.6c2,2,5.2,2.3,7.6,0.7l64.1-44.6
				c10.2,15.5,15.4,30.6,15.4,45.1c0,43.6-19.1,58.3-23.9,61.3h-132.6C1284.6,466.8,1265.4,452.1,1265.4,408.4z M1279.8,497.3
				c0,0,0-0.1,0.1-0.1c1.3-2.4,2.8-4.9,4.5-7.4c0.2-0.2,0.3-0.5,0.5-0.7c0.7-1,1.4-2,2.1-2.9c0.2-0.3,0.4-0.6,0.7-0.9
				c0.9-1.2,1.9-2.4,2.9-3.6h130.3c1,1.2,2,2.4,2.9,3.6c0.2,0.3,0.4,0.6,0.6,0.9c0.7,1,1.5,2,2.2,3c0.1,0.2,0.3,0.4,0.4,0.6
				c1.7,2.5,3.2,5,4.5,7.4c0,0,0,0,0,0.1c2.6,5,4.4,9.9,5.2,14.6h-161.9C1275.4,507.1,1277.2,502.3,1279.8,497.3z M1299.4,553.9
				c-4.3-2.2-20.9-11.7-24.7-28.5c-0.1-0.6-0.2-1.1-0.3-1.7h162.2c-0.1,0.5-0.2,1.1-0.3,1.6c-3.7,16.8-20.3,26.4-24.7,28.6h-7.8
				h-96.7H1299.4z M1466.1,880.4h-221v-28.9h221V880.4z M1470.8,839.6h-230.4c-4-1.9-21.2-12.3-17.7-44.5
				c1.9-17.5,15.2-39.5,30.5-65c26-43.1,58.1-96.4,59.9-164.4h85c1.8,67.9,33.9,121.3,59.9,164.4c15.4,25.5,28.6,47.5,30.5,65
				C1492,827.2,1474.9,837.6,1470.8,839.6z"/>
		</g>
		<g>
			<path fill="#FFFFFF" d="M651.7,532.3c-0.6,2.8-3,4.8-5.8,4.8h-22.4c-1.7,0-3.3-0.7-4.4-2c-1.1-1.3-1.7-3-1.5-4.6l7.8-65.9h-80.9
				l7.8,65.9c0.2,1.7-0.3,3.4-1.5,4.6c-1.1,1.3-2.7,2-4.4,2h-22.4c-2.8,0-5.3-2-5.8-4.8l-13.4-67.8h-57.4l26.6,106.1h8.8h204.2h8.8
				l26.6-106.1h-57.4L651.7,532.3z"/>
			<polygon fill="#FFFFFF" points="510.8,621.9 525.9,621.9 644.1,621.9 659.2,621.9 677.8,582.4 492.2,582.4 			"/>
			<path fill="#FFFFFF" d="M531.7,633.8c-1.6,66.2-29.7,94.9-52.4,118.1c-14.2,14.5-25.4,26-27.3,43.2
				c-3.5,32.2,13.7,42.5,17.7,44.5h230.4c4.1-2,21.2-12.3,17.7-44.5c-1.9-17.3-13.1-28.7-27.3-43.2c-22.7-23.2-50.8-51.8-52.4-118.1
				H531.7z"/>
			<rect x="474.5" y="851.4" fill="#FFFFFF" width="221" height="28.9"/>
			<path d="M730.1,452.7h-69.8c-2.8,0-5.3,2-5.8,4.8L641,525.2h-10.9l7.8-65.9c0.2-1.7-0.3-3.4-1.5-4.6c-1.1-1.3-2.7-2-4.4-2h-94.3
				c-1.7,0-3.3,0.7-4.4,2c-1.1,1.3-1.7,3-1.5,4.6l7.8,65.9H529l-13.4-67.8c-0.6-2.8-3-4.8-5.8-4.8h-69.8c-1.8,0-3.5,0.8-4.7,2.3
				c-1.1,1.4-1.5,3.3-1.1,5.1l29.6,117.9c0.7,2.6,3,4.5,5.7,4.5h9.7l22.6,48c1,2.1,3.1,3.4,5.4,3.4h12.8c-1.5,61.3-26.7,87-49,109.8
				c-14.6,14.9-28.3,28.9-30.6,50.2c-3.9,36,14.1,50.6,22.4,55.3v37.1c0,3.3,2.7,5.9,5.9,5.9h232.9c3.3,0,5.9-2.7,5.9-5.9v-37.1
				c8.2-4.7,26.3-19.4,22.4-55.3c-2.3-21.3-16.1-35.4-30.6-50.2c-22.3-22.8-47.5-48.5-49-109.8h12.8c2.3,0,4.4-1.3,5.4-3.4l22.6-48
				h9.7c2.7,0,5.1-1.8,5.7-4.5L735.8,460c0.4-1.8,0-3.6-1.1-5.1C733.6,453.5,731.9,452.7,730.1,452.7z M695.5,880.4h-221v-28.9h221
				V880.4z M690.6,751.9c14.2,14.5,25.4,26,27.3,43.2c3.5,32.1-13.6,42.5-17.7,44.5H469.8c-4-1.9-21.2-12.3-17.7-44.5
				c1.9-17.3,13.1-28.7,27.3-43.2c22.7-23.2,50.8-51.8,52.4-118.1h106.5C639.8,700,667.9,728.7,690.6,751.9z M659.2,621.9h-15.1
				H525.9h-15.1l-18.6-39.5h185.5L659.2,621.9z M695.9,570.6h-8.8H482.9h-8.8l-26.6-106.1h57.4l13.4,67.8c0.6,2.8,3,4.8,5.8,4.8
				h22.4c1.7,0,3.3-0.7,4.4-2c1.1-1.3,1.7-3,1.5-4.6l-7.8-65.9h80.9l-7.8,65.9c-0.2,1.7,0.3,3.4,1.5,4.6c1.1,1.3,2.7,2,4.4,2h22.4
				c2.8,0,5.3-2,5.8-4.8l13.4-67.8h57.4L695.9,570.6z"/>
		</g>
		<g>
			<path fill="#FFFFFF" d="M846,761.9c-9.9,10.9-16.3,20.5-17.7,33.2c-3.5,32.1,13.6,42.5,17.7,44.5h230.4
				c4.1-2,21.2-12.3,17.7-44.5c-1.4-12.8-7.8-22.4-17.7-33.2H846z"/>
			<path fill="#FFFFFF" d="M1104.4,570.7c0.2-4.2,0.6-8.8,0.9-13.8c3.5-49.6,9.4-132.6-45.6-175.1c-59.9-46.3-126.8-30.1-135.7-25.7
				c-3.1,3.8-6.1,24-7.8,35c-0.6,3.7-1,7-1.5,9.8c29.1-13.5,57.2-7.8,70.5-3.7c1.2-10.6,4.9-18.9,11-24.6c9-8.4,19.9-7.8,20.4-7.8
				c2.6,0.2,4.8,2,5.4,4.6l14,59.7c8.5,6.8,42.3,36.9,38.5,89c-2.1,28.6-12.7,52.4-22.1,73.4c-9.3,20.8-17.4,38.7-15.5,56.8
				c3,29.2,30,54.9,40.3,63.8l55.5-56.3C1102.1,638,1101.9,613.5,1104.4,570.7z"/>
			<rect x="850.7" y="851.4" fill="#FFFFFF" width="221" height="28.9"/>
			<path fill="#FFFFFF" d="M1075.1,750c6.6-16.7-0.4-24.4-1.3-25.4c-4-3.1-44.5-35.3-48.6-75.1c-2.2-21.2,6.9-41.4,16.5-62.9
				c9.4-21.1,19.2-42.8,21.1-69.4c3.7-51.6-35-79.6-35.4-79.9c-1.2-0.8-2-2.1-2.4-3.5l-13.3-56.7c-2.2,0.6-5,1.8-7.5,4.2
				c-5,4.8-7.6,12.9-7.6,24.1c0,2-1,3.9-2.7,5c-1.7,1.1-3.8,1.2-5.7,0.4c-0.4-0.2-40.4-17.8-77.7,5.7c-6.8,11.9-29.9,23.5-43.5,28.3
				c-0.5,0.2-1.1,0.3-1.7,0.3c-39.8,1.7-54.6,31.2-59.1,43.9c-5.1,14.3-4.2,25.7-2.1,30.1h34.2l38.4-7.3c3.2-0.6,6.3,1.5,6.9,4.7
				c0.6,3.2-1.5,6.3-4.7,6.9l-33,6.3c1.9,5.4,5.5,9.5,10.7,11.8c8.2,3.6,18.8,2,27-4c21.7-16,47-1.1,48.2-0.3
				c0.8,0.5,36.2,20.9,55.6,0.9c2.3-2.3,6-2.4,8.4-0.1c2.3,2.3,2.4,6,0.1,8.4c-9.1,9.3-20.1,12.4-30.8,12.4c-15,0-29.2-6.1-35.7-9.4
				c-17.7,14.6-107.1,90.8-111.7,139c-4.5,46.8,21.8,59.7,26.5,61.6H1075.1z"/>
			<path d="M1145.1,649c-29.9-14.4-31.6-30.7-28.9-77.6c0.2-4.2,0.6-8.7,0.9-13.6c3.7-52,9.8-138.9-50.2-185.3
				C1000.4,321,926.8,341,918,345.8c-6.9,3.8-9.5,16.8-13.5,43.5c-1.3,8.4-2.7,18-3.9,20.8c-2.7,6.3-20.4,17.5-36.7,23.3
				c-32.2,1.7-57.9,21-68.8,51.7c-6.8,19-5.8,37.3,2.2,44.4c1.1,1,2.5,1.5,3.9,1.5H834c2.5,9.8,8.9,17.4,18,21.4
				c12.2,5.3,27.1,3.3,38.8-5.3c9.2-6.8,19.8-5.5,26.9-3.2c-25.6,21.5-106.8,93.3-111.6,143.4c-4.2,44.4,15.9,63.3,27.6,70.5
				c-9.4,11-15.8,21.8-17.3,36c-3.9,36,14.1,50.6,22.4,55.3v37.1c0,3.3,2.7,5.9,5.9,5.9h232.9c3.3,0,5.9-2.7,5.9-5.9v-37.1
				c8.2-4.7,26.3-19.4,22.4-55.3c-1.7-15.5-9.1-27-20-39c6.8-16.9,3.1-28.2-0.5-34.2l61.3-62.2c1.3-1.4,1.9-3.3,1.6-5.2
				C1148.1,651.4,1146.8,649.8,1145.1,649z M817.9,688.4c4.6-48.2,94-124.4,111.7-139c6.5,3.3,20.7,9.4,35.7,9.4
				c10.6,0,21.7-3.1,30.8-12.4c2.3-2.3,2.2-6.1-0.1-8.4c-2.3-2.3-6.1-2.2-8.4,0.1c-19.4,20-54.8-0.5-55.6-0.9
				c-1.3-0.8-26.5-15.7-48.2,0.3c-8.2,6.1-18.8,7.6-27,4c-5.2-2.3-8.9-6.4-10.7-11.8l33-6.3c3.2-0.6,5.3-3.7,4.7-6.9
				c-0.6-3.2-3.7-5.3-6.9-4.7l-38.4,7.3h-34.2c-2.1-4.4-3-15.8,2.1-30.1c4.5-12.6,19.2-42.2,59.1-43.9c0.6,0,1.1-0.1,1.7-0.3
				c13.6-4.7,36.7-16.4,43.5-28.3c37.3-23.5,77.3-5.9,77.7-5.7c1.8,0.8,4,0.7,5.7-0.4c1.7-1.1,2.7-3,2.7-5c0-11.2,2.5-19.3,7.6-24.1
				c2.5-2.4,5.3-3.6,7.5-4.2L1025,434c0.3,1.4,1.2,2.7,2.4,3.5c0.4,0.3,39.2,28.2,35.4,79.9c-1.9,26.5-11.7,48.3-21.1,69.4
				c-9.6,21.4-18.7,41.6-16.5,62.9c4.1,39.9,44.6,72,48.6,75.1c1,1,7.9,8.7,1.3,25.4H844.4C839.7,748.1,813.5,735.2,817.9,688.4z
				 M1071.7,880.4h-221v-28.9h221V880.4z M1094.1,795.1c3.5,32.1-13.6,42.5-17.7,44.5H846c-4.1-2-21.2-12.3-17.7-44.5
				c1.4-12.8,7.8-22.4,17.7-33.2h230.4C1086.3,772.7,1092.7,782.3,1094.1,795.1z M1077.2,712.1c-10.3-8.9-37.3-34.6-40.3-63.8
				c-1.9-18,6.2-36,15.5-56.8c9.4-21,20.1-44.7,22.1-73.4c3.8-52-30-82.2-38.5-89l-14-59.7c-0.6-2.5-2.8-4.4-5.4-4.6
				c-0.5,0-11.4-0.7-20.4,7.8c-6.1,5.7-9.8,13.9-11,24.6c-13.3-4.2-41.4-9.8-70.5,3.7c0.5-2.9,1-6.2,1.5-9.8c1.6-11,4.7-31.2,7.8-35
				c8.9-4.4,75.8-20.6,135.7,25.7c55,42.5,49.2,125.5,45.6,175.1c-0.4,5-0.7,9.6-0.9,13.8c-2.4,42.8-2.3,67.3,28.3,85.1
				L1077.2,712.1z"/>
		</g>
	</g>
	<g>
		<g>
			<rect x="1959.8" y="1689.8" width="221" height="28.9"/>
			<path d="M1996.6,1389.8C1996.6,1389.8,1996.6,1389.8,1996.6,1389.8c0.4-0.8,0.7-1.6,1.1-2.4c0.1-0.1,0.1-0.2,0.2-0.4
				c0.6-1.3,1.2-2.6,1.9-3.9c0.2-0.4,0.4-0.8,0.7-1.3c0.3-0.6,0.6-1.1,0.9-1.7c0.4-0.7,0.8-1.4,1.2-2.1c0.3-0.5,0.6-1,0.9-1.6
				c0.5-0.9,1.1-1.7,1.6-2.6c0.2-0.4,0.5-0.7,0.7-1.1c0.7-1.1,1.5-2.2,2.3-3.4h133.4c0.8,1.1,1.5,2.3,2.3,3.4
				c0.2,0.4,0.5,0.7,0.7,1.1c0.6,0.9,1.1,1.7,1.6,2.6c0.3,0.5,0.6,1,0.9,1.5c0.4,0.7,0.8,1.4,1.2,2.2c0.3,0.6,0.6,1.1,0.9,1.7
				c0.2,0.4,0.4,0.8,0.7,1.3c0.7,1.3,1.3,2.6,1.9,3.9c0.1,0.1,0.1,0.2,0.2,0.4c0.4,0.8,0.7,1.6,1.1,2.4c0,0,0,0,0,0
				c2.8,6.6,4.6,13,5.4,19.1h-167.2C1991.9,1402.8,1993.7,1396.4,1996.6,1389.8z"/>
			<path d="M2007.9,1357.6c-11.4-14.7-17.6-33-17.6-51.7c0-46.6,37.9-84.5,84.5-84.5c46.6,0,84.5,37.9,84.5,84.5
				c0,18.7-6.2,36.9-17.6,51.7H2007.9z"/>
			<path d="M2129.4,1460.3h-112.1c-4.5-2.8-20.8-14.1-25.3-33.9c-0.4-1.9-0.7-3.7-0.9-5.6h167.4c-0.2,1.9-0.5,3.8-0.9,5.6
				c-4.5,19.8-20.8,31.1-25.3,33.9H2129.4z"/>
			<path d="M1964.7,1590.3c22.7-23.2,50.8-51.8,52.4-118.1h106.5c1.6,66.2,29.7,94.9,52.4,118.1c14.2,14.5,25.4,26,27.3,43.2
				c3.5,32.2-13.7,42.5-17.7,44.5h-230.4c-4.1-2-21.2-12.3-17.7-44.5C1939.2,1616.2,1950.5,1604.8,1964.7,1590.3z"/>
			<path fill="#FFFFFF" d="M1925.6,1632.2c-3.9,36,14.1,50.6,22.4,55.3v37.1c0,3.3,2.7,5.9,5.9,5.9h232.9c3.3,0,5.9-2.7,5.9-5.9
				v-37.1c8.2-4.7,26.3-19.4,22.4-55.3c-2.3-21.3-16.1-35.4-30.6-50.2c-22.3-22.8-47.5-48.5-49-110c0.4-0.1,0.9-0.3,1.3-0.5
				c1.1-0.6,25.9-14,32.4-42.2c3.2-13.9,1.4-28.8-5.4-44.5c0,0,0-0.1-0.1-0.1c-0.5-1.1-1-2.2-1.5-3.3c-0.1-0.2-0.2-0.3-0.3-0.5
				c-1.4-2.9-2.9-5.7-4.6-8.6c-0.4-0.7-0.8-1.4-1.3-2.2c-0.4-0.6-0.7-1.2-1.1-1.8c-0.6-0.9-1.1-1.8-1.7-2.6c-0.3-0.5-0.6-1-1-1.4
				c-0.1-0.2-0.2-0.3-0.3-0.5c12.4-16.6,19.2-36.9,19.2-57.8c0-53.1-43.2-96.4-96.4-96.4s-96.4,43.2-96.4,96.4
				c0,20.8,6.8,41.2,19.2,57.8c-0.1,0.2-0.2,0.3-0.3,0.5c-0.4,0.5-0.7,1-1,1.6c-0.6,0.8-1.1,1.7-1.6,2.5c-0.4,0.6-0.8,1.3-1.2,1.9
				c-0.4,0.7-0.8,1.4-1.2,2.1c-1.7,2.9-3.3,5.8-4.7,8.7c-0.1,0.2-0.2,0.3-0.2,0.5c-0.5,1.1-1,2.2-1.5,3.3c0,0,0,0.1,0,0.1
				c-6.8,15.6-8.6,30.5-5.4,44.5c4.3,18.7,16.6,30.9,24.8,37.1c0,65.5-26.1,92.1-49.1,115.6
				C1941.7,1596.8,1927.9,1610.9,1925.6,1632.2z M2141.7,1357.6h-133.8c-11.4-14.7-17.6-33-17.6-51.7c0-46.6,37.9-84.5,84.5-84.5
				c46.6,0,84.5,37.9,84.5,84.5C2159.3,1324.6,2153.1,1342.9,2141.7,1357.6z M2158.4,1409h-167.2c0.8-6.2,2.5-12.5,5.4-19.1
				c0,0,0,0,0,0c0.3-0.8,0.7-1.6,1.1-2.4c0.1-0.1,0.1-0.2,0.2-0.4c0.6-1.3,1.2-2.6,1.9-3.9c0.2-0.4,0.4-0.8,0.7-1.3
				c0.3-0.6,0.6-1.1,0.9-1.7c0.4-0.7,0.8-1.4,1.2-2.1c0.3-0.5,0.6-1,0.9-1.6c0.5-0.9,1.1-1.7,1.6-2.6c0.2-0.4,0.5-0.7,0.7-1.1
				c0.7-1.1,1.5-2.2,2.3-3.4h133.4c0.8,1.1,1.5,2.3,2.3,3.4c0.2,0.4,0.5,0.7,0.7,1.1c0.6,0.9,1.1,1.7,1.6,2.6c0.3,0.5,0.6,1,0.9,1.5
				c0.4,0.7,0.8,1.4,1.2,2.2c0.3,0.6,0.6,1.1,0.9,1.7c0.2,0.4,0.4,0.8,0.7,1.3c0.7,1.3,1.3,2.6,1.9,3.9c0.1,0.1,0.1,0.2,0.2,0.4
				c0.4,0.8,0.7,1.6,1.1,2.4c0,0,0,0,0,0C2155.8,1396.4,2157.6,1402.8,2158.4,1409z M2132.3,1460.3h-2.9h-112.1
				c-4.5-2.8-20.8-14.1-25.3-33.9c-0.4-1.9-0.7-3.7-0.9-5.6h167.4c-0.2,1.9-0.5,3.8-0.9,5.6
				C2153.1,1446.3,2136.8,1457.5,2132.3,1460.3z M1959.8,1689.8h221v28.9h-221V1689.8z M1937.4,1633.5c1.9-17.3,13.1-28.7,27.3-43.2
				c22.7-23.2,50.8-51.8,52.4-118.1h106.5c1.6,66.2,29.7,94.9,52.4,118.1c14.2,14.5,25.4,26,27.3,43.2c3.5,32.2-13.7,42.5-17.7,44.5
				h-230.4C1951,1676,1933.9,1665.6,1937.4,1633.5z"/>
		</g>
		<g>
			<path d="M161.2,1269.5c1-2.8,2.3-6.2-16.3-76.2c-6.4-24.1-13.1-48-16.4-59.7h45.9h0h88.4h45.9c-3.3,11.8-10,35.6-16.4,59.7
				c-18.6,69.9-17.3,73.4-16.3,76.2c2,5.4,13.4,20.9,21.5,31.5H139.7C147.8,1290.4,159.2,1274.9,161.2,1269.5z"/>
			<path d="M139.7,1369.2h158.1c-5.6,13.4-19,21.1-22.9,23.1H162.5C158.7,1390.3,145.3,1382.6,139.7,1369.2z"/>
			<path d="M242,1079.1c-1.6,1.1-2.6,2.9-2.6,4.9v1.4c0,0.8,0.2,1.6,0.5,2.3l14.2,34h-70.6l14.2-34c0.3-0.7,0.5-1.5,0.5-2.3v-1.2
				c0-2-1-3.8-2.6-4.9c-1.6-1.1-3.7-1.3-5.6-0.5l-42.8,17.8v-70.6l42.8,17.8c1.8,0.8,3.9,0.6,5.6-0.5c1.6-1.1,2.6-2.9,2.6-4.9v-1.2
				c0-0.8-0.2-1.6-0.5-2.3l-14.2-34H254l-14.2,34c-0.9,2.2-0.4,4.8,1.3,6.5c1.7,1.7,4.2,2.2,6.5,1.3l41.8-17.4v70.6l-41.8-17.4
				C245.7,1077.8,243.6,1078,242,1079.1z"/>
			<path d="M107.8,1357.4c1.9-13.8,9.5-28.8,22.6-44.5h176.5c13.2,15.8,20.8,30.7,22.6,44.5h-24H131.8H107.8z"/>
			<path d="M116.3,1568.5c26-43.1,58.1-96.4,59.9-164.4h85c1.8,67.9,33.9,121.3,59.9,164.4c15.4,25.5,28.6,47.5,30.5,65
				c3.5,32.2-13.7,42.5-17.7,44.5H103.5c-4.1-2-21.2-12.3-17.7-44.5C87.6,1616,100.9,1594,116.3,1568.5z"/>
			<rect x="108.2" y="1689.8" width="221" height="28.9"/>
			<path fill="#FFFFFF" d="M74,1632.2c-3.9,36,14.1,50.6,22.4,55.3v37.1c0,3.3,2.7,5.9,5.9,5.9h232.9c3.3,0,5.9-2.7,5.9-5.9v-37.1
				c8.2-4.7,26.3-19.4,22.4-55.3c-2.2-20.1-16.1-43.2-32.1-69.8c-25.2-41.8-56.4-93.6-58.2-158.3h3.1c0.8,0,1.7-0.2,2.4-0.5
				c1.1-0.5,24.8-11.3,31.7-34.4H336c1.6,0,3.1-0.6,4.2-1.8c1.1-1.1,1.7-2.7,1.7-4.2c-0.3-18.9-9.6-39.1-27.7-60.1
				c-11.6-14.9-24.4-32.3-26.8-37.2c0.2-9.6,17.9-77,34.8-136.6c0.5-1.8,0.1-3.7-1-5.2c-1.1-1.5-2.9-2.4-4.7-2.4h-49.8l-11.3-27
				l37.4,15.6c1.8,0.8,3.9,0.6,5.6-0.5c1.6-1.1,2.6-2.9,2.6-4.9v-88.4c0-2-1-3.8-2.6-4.9c-1.6-1.1-3.7-1.3-5.6-0.5l-36.7,15.3
				l12-28.9c0.8-1.8,0.6-3.9-0.5-5.6s-2.9-2.6-4.9-2.6h-88.4c-2,0-3.8,1-4.9,2.6c-1.1,1.6-1.3,3.7-0.5,5.6l12.6,30.3l-38.3-16
				c-1.8-0.8-3.9-0.6-5.6,0.5c-1.6,1.1-2.6,2.9-2.6,4.9v88.4c0,2,1,3.8,2.6,4.9c1.6,1.1,3.7,1.3,5.6,0.5l38.3-16l-11.1,26.7h-49.8
				c-1.9,0-3.6,0.9-4.7,2.4c-1.1,1.5-1.5,3.4-1,5.2c16.9,59.6,34.7,126.9,34.8,136.6c-2.3,4.9-15.1,22.3-26.8,37.2
				c-18.1,21-27.4,41.2-27.7,60.1c0,1.6,0.6,3.1,1.7,4.2c1.1,1.1,2.6,1.8,4.2,1.8h25.7c6.8,23.1,30.6,33.9,31.7,34.4
				c0.8,0.3,1.6,0.5,2.4,0.5h3.1c-1.8,64.7-33,116.5-58.2,158.3C90,1589.1,76.2,1612.1,74,1632.2z M247.6,1078.6
				c-1.8-0.8-3.9-0.6-5.6,0.5c-1.6,1.1-2.6,2.9-2.6,4.9v1.4c0,0.8,0.2,1.6,0.5,2.3l14.2,34h-70.6l14.2-34c0.3-0.7,0.5-1.5,0.5-2.3
				v-1.2c0-2-1-3.8-2.6-4.9c-1.6-1.1-3.7-1.3-5.6-0.5l-42.8,17.8v-70.6l42.8,17.8c1.8,0.8,3.9,0.6,5.6-0.5c1.6-1.1,2.6-2.9,2.6-4.9
				v-1.2c0-0.8-0.2-1.6-0.5-2.3l-14.2-34H254l-14.2,34c-0.9,2.2-0.4,4.8,1.3,6.5c1.7,1.7,4.2,2.2,6.5,1.3l41.8-17.4v70.6
				L247.6,1078.6z M297.6,1301H139.7c8.1-10.6,19.5-26.1,21.5-31.5c1-2.8,2.3-6.2-16.3-76.2c-6.4-24.1-13.1-48-16.4-59.7h45.9h0
				h88.4h45.9c-3.3,11.8-10,35.6-16.4,59.7c-18.6,69.9-17.3,73.4-16.3,76.2C278.1,1274.9,289.6,1290.4,297.6,1301z M305.6,1357.4
				H131.8h-24c1.9-13.8,9.5-28.8,22.6-44.5h176.5c13.2,15.8,20.8,30.7,22.6,44.5H305.6z M162.5,1392.3c-3.8-2-17.2-9.7-22.9-23.1
				h158.1c-5.6,13.4-19,21.1-22.9,23.1H162.5z M108.2,1689.8h221v28.9h-221V1689.8z M85.7,1633.5c1.9-17.5,15.2-39.5,30.5-65
				c26-43.1,58.1-96.4,59.9-164.4h85c1.8,67.9,33.9,121.3,59.9,164.4c15.4,25.5,28.6,47.5,30.5,65c3.5,32.2-13.7,42.5-17.7,44.5
				H103.5C99.3,1676,82.2,1665.6,85.7,1633.5z"/>
		</g>
		<g>
			<path d="M497,1369.2h158.1c-5.6,13.4-19,21.1-22.9,23.1H519.9C516.1,1390.3,502.7,1382.6,497,1369.2z"/>
			<path d="M473.6,1568.5c26-43.1,58.1-96.4,59.9-164.4h85c1.8,67.9,33.9,121.3,59.9,164.4c15.4,25.5,28.6,47.5,30.5,65
				c3.5,32.2-13.7,42.5-17.7,44.5H460.8c-4.1-2-21.2-12.3-17.7-44.5C445,1616,458.3,1594,473.6,1568.5z"/>
			<path d="M465.1,1357.4c1.9-13.8,9.5-28.8,22.6-44.5h19h138.5h19c13.2,15.8,20.8,30.7,22.6,44.5h-24H489.1H465.1z"/>
			<path d="M512.2,1301c-1.8-17.1-9.8-68.9-41.3-103.6c4.7-1.1,10.9-2,17.5-2.1c0,0,0,0,0,0c0.2,0,0.5,0,0.7,0c0.1,0,0.3,0,0.4,0
				c16.7,0.1,29,6.3,36.4,18.3c1,1.7,2.8,2.7,4.8,2.8c2,0.1,3.8-0.8,5-2.3c0.2-0.2,18.7-24.4,40.4-27.2
				c21.6,2.8,40.2,26.9,40.4,27.2c1.2,1.6,3.1,2.4,5,2.3c2-0.1,3.7-1.1,4.8-2.8c7.4-12,19.7-18.2,36.4-18.3c0.1,0,0.3,0,0.4,0
				c0.2,0,0.5,0,0.7,0c0,0,0,0,0,0c6.6,0,12.8,1,17.5,2.1c-31.5,34.7-39.5,86.5-41.3,103.6H512.2z"/>
			<path d="M620.8,1201c-8-8.6-24.5-23.8-44.1-25.9c-0.4,0-0.9,0-1.3,0c-19.6,2.1-36.1,17.3-44.1,25.9c-8.5-9.9-20.4-15.8-35.1-17.2
				c3-12.6,12.6-40.9,40-53.8c6.5,15.6,21.9,26.6,39.8,26.6c17.9,0,33.3-11,39.8-26.6c27.5,13,37,41.2,40,53.8
				C641.2,1185.2,629.3,1191.1,620.8,1201z"/>
			<path d="M576,1144.7c-17.3,0-31.3-14-31.3-31.3c0-17.3,14-31.3,31.3-31.3c17.3,0,31.3,14,31.3,31.3
				C607.4,1130.7,593.3,1144.7,576,1144.7z"/>
			<rect x="465.5" y="1689.8" width="221" height="28.9"/>
			<path fill="#FFFFFF" d="M431.3,1632.2c-3.9,36,14.1,50.6,22.4,55.3v37.1c0,3.3,2.7,5.9,5.9,5.9h232.9c3.3,0,5.9-2.7,5.9-5.9
				v-37.1c8.2-4.7,26.3-19.4,22.4-55.3c-2.2-20.1-16.1-43.2-32.1-69.8c-25.2-41.8-56.4-93.6-58.2-158.3h3.1c0.8,0,1.7-0.2,2.4-0.5
				c1.1-0.5,24.8-11.3,31.7-34.4h25.7c1.6,0,3.1-0.6,4.2-1.8c1.1-1.1,1.7-2.7,1.7-4.2c-0.3-18.9-9.6-39.2-27.7-60.2
				c-1.1-1.3-2.8-2.1-4.5-2.1h-15.2c2.2-18.2,11.2-71.8,44.6-102.2c1.5-1.4,2.2-3.5,1.8-5.5c-0.4-2-1.8-3.7-3.7-4.4
				c-0.5-0.2-12-4.5-26.6-5.3c-2.7-13.5-13.2-49.7-49.1-65.3c0.2-1.6,0.3-3.2,0.3-4.9c0-23.8-19.4-43.2-43.2-43.2
				s-43.2,19.4-43.2,43.2c0,1.6,0.1,3.3,0.3,4.9c-35.9,15.6-46.3,51.8-49.1,65.3c-14.6,0.8-26.1,5.1-26.6,5.3
				c-1.9,0.7-3.3,2.4-3.7,4.4c-0.4,2,0.3,4.1,1.8,5.5c33.4,30.4,42.5,84,44.6,102.2H485c-1.7,0-3.4,0.7-4.5,2.1
				c-18.1,21-27.5,41.3-27.7,60.2c0,1.6,0.6,3.1,1.7,4.2c1.1,1.1,2.6,1.8,4.2,1.8h25.7c6.8,23.1,30.6,33.9,31.7,34.4
				c0.8,0.3,1.6,0.5,2.4,0.5h3.1c-1.8,64.7-33,116.5-58.2,158.3C447.4,1589.1,433.5,1612.1,431.3,1632.2z M607.4,1113.4
				c0,17.3-14,31.3-31.3,31.3c-17.3,0-31.3-14-31.3-31.3c0-17.3,14-31.3,31.3-31.3C593.3,1082.1,607.4,1096.2,607.4,1113.4z
				 M655.9,1183.8c-14.7,1.4-26.6,7.3-35.1,17.2c-8-8.6-24.5-23.8-44.1-25.9c-0.4,0-0.9,0-1.3,0c-19.6,2.1-36.1,17.3-44.1,25.9
				c-8.5-9.9-20.4-15.8-35.1-17.2c3-12.6,12.6-40.9,40-53.8c6.5,15.6,21.9,26.6,39.8,26.6c17.9,0,33.3-11,39.8-26.6
				C643.4,1143,652.9,1171.2,655.9,1183.8z M639.9,1301H512.2c-1.8-17.1-9.8-68.9-41.3-103.6c4.7-1.1,10.9-2,17.5-2.1c0,0,0,0,0,0
				c0.2,0,0.5,0,0.7,0c0.1,0,0.3,0,0.4,0c16.7,0.1,29,6.3,36.4,18.3c1,1.7,2.8,2.7,4.8,2.8c2,0.1,3.8-0.8,5-2.3
				c0.2-0.2,18.7-24.4,40.4-27.2c21.6,2.8,40.2,26.9,40.4,27.2c1.2,1.6,3.1,2.4,5,2.3c2-0.1,3.7-1.1,4.8-2.8
				c7.4-12,19.7-18.2,36.4-18.3c0.1,0,0.3,0,0.4,0c0.2,0,0.5,0,0.7,0c0,0,0,0,0,0c6.6,0,12.8,1,17.5,2.1
				C649.7,1232.1,641.7,1283.9,639.9,1301z M663,1357.4H489.1h-24c1.9-13.8,9.5-28.8,22.6-44.5h19h138.5h19
				c13.2,15.8,20.8,30.7,22.6,44.5H663z M519.9,1392.3c-3.8-2-17.2-9.7-22.9-23.1h158.1c-5.6,13.4-19,21.1-22.9,23.1H519.9z
				 M465.5,1689.8h221v28.9h-221V1689.8z M443.1,1633.5c1.9-17.5,15.2-39.5,30.5-65c26-43.1,58.1-96.4,59.9-164.4h85
				c1.8,67.9,33.9,121.3,59.9,164.4c15.4,25.5,28.6,47.5,30.5,65c3.5,32.2-13.7,42.5-17.7,44.5H460.8
				C456.7,1676,439.6,1665.6,443.1,1633.5z"/>
		</g>
		<g>
			<path d="M903.2,1144.2c-5.3-6.8-8.2-15-8.2-23.6c0-21.2,17.2-38.4,38.4-38.4c21.2,0,38.4,17.2,38.4,38.4c0,8.6-2.9,16.9-8.2,23.6
				H903.2z"/>
			<rect x="822.9" y="1689.8" width="221" height="28.9"/>
			<path d="M885,1392.3h-7.8c-4.4-2.3-21-11.9-24.7-28.6c-0.1-0.5-0.2-1.1-0.3-1.6h162.2c-0.1,0.6-0.2,1.1-0.3,1.7
				c-3.8,16.8-20.3,26.3-24.7,28.5h-7.8H885z"/>
			<path d="M999.7,1308.2H867.1c-4.8-3-23.9-17.7-23.9-61.3c0-14.5,5.2-29.7,15.4-45.1l64.1,44.6c2.3,1.6,5.5,1.4,7.6-0.7
				c2-2,2.3-5.2,0.7-7.6l-46.1-66.7c8.5-7.9,15.8-13.3,18.8-15.4h59.6c8.8,6.3,60.4,44.9,60.4,90.8
				C1023.6,1290.5,1004.4,1305.2,999.7,1308.2z"/>
			<path d="M857.7,1335.6C857.7,1335.6,857.7,1335.6,857.7,1335.6c1.3-2.5,2.8-5,4.5-7.5c0.1-0.2,0.3-0.4,0.4-0.6c0.7-1,1.4-2,2.2-3
				c0.2-0.3,0.4-0.6,0.6-0.9c0.9-1.2,1.9-2.4,2.9-3.6h130.3c1,1.2,2,2.4,2.9,3.6c0.2,0.3,0.4,0.6,0.7,0.9c0.7,1,1.4,2,2.1,2.9
				c0.2,0.2,0.3,0.5,0.5,0.7c1.7,2.5,3.2,5,4.5,7.4c0,0,0,0.1,0.1,0.1c2.6,5,4.4,9.9,5.2,14.6H852.4
				C853.3,1345.5,855,1340.7,857.7,1335.6z"/>
			<path d="M831,1568.5c26-43.1,58.1-96.4,59.9-164.4h85c1.8,67.9,33.9,121.3,59.9,164.4c15.4,25.5,28.6,47.5,30.5,65
				c3.5,32.2-13.7,42.5-17.7,44.5H818.2c-4.1-2-21.2-12.3-17.7-44.5C802.4,1616,815.6,1594,831,1568.5z"/>
			<path fill="#FFFFFF" d="M788.7,1632.2c-3.9,36,14.1,50.6,22.4,55.3v37.1c0,3.3,2.7,5.9,5.9,5.9h232.9c3.3,0,5.9-2.7,5.9-5.9
				v-37.1c8.2-4.7,26.3-19.4,22.4-55.3c-2.2-20.1-16.1-43.2-32.1-69.8c-25.2-41.8-56.4-93.6-58.2-158.3h3.1c0.8,0,1.7-0.2,2.4-0.5
				c1.1-0.5,26.8-12.2,32.5-37.3c2.5-11.2,0.5-23.1-5.8-35.5c0,0,0-0.1,0-0.1c-1.3-2.6-2.8-5.2-4.6-7.8c-0.2-0.4-0.5-0.7-0.7-1.1
				c-0.4-0.6-0.8-1.2-1.2-1.8c-0.4-0.6-0.8-1.1-1.2-1.7c-0.4-0.5-0.7-1-1.1-1.5c-0.4-0.5-0.8-1.1-1.2-1.6
				c9.2-7.5,25.5-26.8,25.5-68.5c0-46.5-43.7-84.1-61.1-97.3c6-8.5,9.3-18.5,9.3-29c0-27.7-22.5-50.3-50.3-50.3
				c-27.7,0-50.3,22.5-50.3,50.3c0,10.5,3.3,20.6,9.3,29c-4.7,3.6-11.8,9.3-19.5,16.8c-2.1,2-2.4,5.2-0.7,7.6l30.4,44l-42.1-29.3
				c-2.6-1.8-6.3-1.2-8.2,1.4c-13.9,19.2-20.9,38.3-20.9,56.9c0,41.7,16.3,60.9,25.5,68.5c-0.4,0.5-0.8,1.1-1.2,1.6
				c-0.4,0.5-0.8,1-1.1,1.5c-0.4,0.6-0.8,1.1-1.2,1.7c-0.4,0.6-0.8,1.2-1.2,1.8c-0.2,0.4-0.5,0.7-0.7,1.1c-1.7,2.6-3.2,5.2-4.6,7.8
				c0,0,0,0,0,0.1c-6.3,12.4-8.3,24.3-5.8,35.5c5.6,25.1,31.4,36.8,32.5,37.3c0.8,0.3,1.6,0.5,2.4,0.5h3.1
				c-1.8,64.7-33,116.5-58.2,158.3C804.8,1589.1,790.9,1612.1,788.7,1632.2z M971.8,1120.5c0,8.6-2.9,16.9-8.2,23.6h-60.5
				c-5.3-6.8-8.2-15-8.2-23.6c0-21.2,17.2-38.4,38.4-38.4C954.6,1082.1,971.8,1099.4,971.8,1120.5z M999.7,1308.2H867.1
				c-4.8-3-23.9-17.7-23.9-61.3c0-14.5,5.2-29.7,15.4-45.1l64.1,44.6c2.3,1.6,5.5,1.4,7.6-0.7c2-2,2.3-5.2,0.7-7.6l-46.1-66.7
				c8.5-7.9,15.8-13.3,18.8-15.4h59.6c8.8,6.3,60.4,44.9,60.4,90.8C1023.6,1290.5,1004.4,1305.2,999.7,1308.2z M1014.4,1350.2H852.4
				c0.8-4.7,2.6-9.6,5.2-14.6c0,0,0,0,0-0.1c1.3-2.4,2.8-4.9,4.5-7.4c0.1-0.2,0.3-0.4,0.4-0.6c0.7-1,1.4-2,2.2-3
				c0.2-0.3,0.4-0.6,0.6-0.9c0.9-1.2,1.9-2.4,2.9-3.6h130.3c1,1.2,2,2.4,2.9,3.6c0.2,0.3,0.4,0.6,0.7,0.9c0.7,1,1.4,2,2.1,2.9
				c0.2,0.2,0.3,0.5,0.5,0.7c1.7,2.5,3.2,5,4.5,7.4c0,0,0,0.1,0.1,0.1C1011.8,1340.7,1013.5,1345.5,1014.4,1350.2z M981.8,1392.3
				H885h-7.8c-4.4-2.3-21-11.9-24.7-28.6c-0.1-0.5-0.2-1.1-0.3-1.6h162.2c-0.1,0.6-0.2,1.1-0.3,1.7c-3.8,16.8-20.3,26.3-24.7,28.5
				H981.8z M822.9,1689.8h221v28.9h-221V1689.8z M800.5,1633.5c1.9-17.5,15.2-39.5,30.5-65c26-43.1,58.1-96.4,59.9-164.4h85
				c1.8,67.9,33.9,121.3,59.9,164.4c15.4,25.5,28.6,47.5,30.5,65c3.5,32.2-13.7,42.5-17.7,44.5H818.2
				C814.1,1676,797,1665.6,800.5,1633.5z"/>
		</g>
		<g>
			<path d="M1637.3,1370.7c0.6,2.8,3,4.8,5.8,4.8h22.4c1.7,0,3.3-0.7,4.4-2c1.1-1.3,1.7-3,1.5-4.6l-7.8-65.9h80.9l-7.8,65.9
				c-0.2,1.7,0.3,3.4,1.5,4.6c1.1,1.3,2.7,2,4.4,2h22.4c2.8,0,5.3-2,5.8-4.8l13.4-67.8h57.4l-26.6,106.1h-8.8h-204.2h-8.8
				l-26.6-106.1h57.4L1637.3,1370.7z"/>
			<polygon points="1778.1,1460.3 1763.1,1460.3 1644.9,1460.3 1629.8,1460.3 1611.2,1420.8 1796.7,1420.8 			"/>
			<path d="M1757.2,1472.2c1.6,66.2,29.7,94.9,52.4,118.1c14.2,14.5,25.4,26,27.3,43.2c3.5,32.2-13.7,42.5-17.7,44.5h-230.4
				c-4.1-2-21.2-12.3-17.7-44.5c1.9-17.3,13.1-28.7,27.3-43.2c22.7-23.2,50.8-51.8,52.4-118.1H1757.2z"/>
			<rect x="1593.5" y="1689.8" width="221" height="28.9"/>
			<path fill="#FFFFFF" d="M1554.2,1293.3c-1.1,1.4-1.5,3.3-1.1,5.1l29.6,117.9c0.7,2.6,3,4.5,5.7,4.5h9.7l22.6,48
				c1,2.1,3.1,3.4,5.4,3.4h12.8c-1.5,61.3-26.7,87-49,109.8c-14.6,14.9-28.3,28.9-30.6,50.2c-3.9,36,14.1,50.6,22.4,55.3v37.1
				c0,3.3,2.7,5.9,5.9,5.9h232.9c3.3,0,5.9-2.7,5.9-5.9v-37.1c8.2-4.7,26.3-19.4,22.4-55.3c-2.3-21.3-16.1-35.4-30.6-50.2
				c-22.3-22.8-47.5-48.5-49-109.8h12.8c2.3,0,4.4-1.3,5.4-3.4l22.6-48h9.7c2.7,0,5.1-1.8,5.7-4.5l29.6-117.9c0.4-1.8,0-3.6-1.1-5.1
				c-1.1-1.4-2.8-2.3-4.7-2.3h-69.8c-2.8,0-5.3,2-5.8,4.8l-13.4,67.8h-10.9l7.8-65.9c0.2-1.7-0.3-3.4-1.5-4.6c-1.1-1.3-2.7-2-4.4-2
				h-94.3c-1.7,0-3.3,0.7-4.4,2c-1.1,1.3-1.7,3-1.5,4.6l7.8,65.9h-10.9l-13.4-67.8c-0.6-2.8-3-4.8-5.8-4.8h-69.8
				C1557.1,1291.1,1555.3,1291.9,1554.2,1293.3z M1593.5,1689.8h221v28.9h-221V1689.8z M1650.7,1472.2h106.5
				c1.6,66.2,29.7,94.9,52.4,118.1c14.2,14.5,25.4,26,27.3,43.2c3.5,32.2-13.7,42.5-17.7,44.5h-230.4c-4.1-2-21.2-12.3-17.7-44.5
				c1.9-17.3,13.1-28.7,27.3-43.2C1621,1567.1,1649.1,1538.4,1650.7,1472.2z M1611.2,1420.8h185.5l-18.6,39.5h-15.1h-118.2h-15.1
				L1611.2,1420.8z M1566.5,1302.9h57.4l13.4,67.8c0.6,2.8,3,4.8,5.8,4.8h22.4c1.7,0,3.3-0.7,4.4-2c1.1-1.3,1.7-3,1.5-4.6l-7.8-65.9
				h80.9l-7.8,65.9c-0.2,1.7,0.3,3.4,1.5,4.6c1.1,1.3,2.7,2,4.4,2h22.4c2.8,0,5.3-2,5.8-4.8l13.4-67.8h57.4l-26.6,106.1h-8.8h-204.2
				h-8.8L1566.5,1302.9z"/>
		</g>
		<g>
			<path d="M1443,1600.3c9.9,10.9,16.3,20.5,17.7,33.2c3.5,32.1-13.6,42.5-17.7,44.5h-230.4c-4.1-2-21.2-12.3-17.7-44.5
				c1.4-12.8,7.8-22.4,17.7-33.2H1443z"/>
			<path d="M1184.6,1409.1c-0.2-4.2-0.6-8.8-0.9-13.8c-3.5-49.6-9.4-132.6,45.6-175.1c59.9-46.3,126.8-30.1,135.7-25.7
				c3.1,3.8,6.1,24,7.8,35c0.6,3.7,1,7,1.5,9.8c-29.1-13.5-57.2-7.8-70.5-3.7c-1.2-10.6-4.9-18.9-11-24.6c-9-8.4-19.9-7.8-20.4-7.8
				c-2.6,0.2-4.8,2-5.4,4.6l-14,59.7c-8.5,6.8-42.3,36.9-38.5,89c2.1,28.6,12.7,52.4,22.1,73.4c9.3,20.8,17.4,38.7,15.5,56.8
				c-3,29.2-30,54.9-40.3,63.8l-55.5-56.3C1186.9,1476.4,1187,1451.9,1184.6,1409.1z"/>
			<rect x="1217.3" y="1689.8" width="221" height="28.9"/>
			<path d="M1213.9,1588.4c-6.6-16.7,0.4-24.4,1.3-25.4c4-3.1,44.5-35.3,48.6-75.1c2.2-21.2-6.9-41.4-16.5-62.9
				c-9.4-21.1-19.2-42.8-21.1-69.4c-3.7-51.6,35-79.6,35.4-79.9c1.2-0.8,2-2.1,2.4-3.5l13.3-56.7c2.2,0.6,5,1.8,7.5,4.2
				c5,4.8,7.6,12.9,7.6,24.1c0,2,1,3.9,2.7,5c1.7,1.1,3.8,1.2,5.7,0.4c0.4-0.2,40.4-17.8,77.7,5.7c6.8,11.9,29.9,23.5,43.5,28.3
				c0.5,0.2,1.1,0.3,1.7,0.3c39.8,1.7,54.6,31.2,59.1,43.9c5.1,14.3,4.2,25.7,2.1,30.1h-34.2l-38.4-7.3c-3.2-0.6-6.3,1.5-6.9,4.7
				c-0.6,3.2,1.5,6.3,4.7,6.9l33,6.3c-1.9,5.4-5.5,9.5-10.7,11.8c-8.2,3.6-18.8,2-27-4c-21.7-16-47-1.1-48.2-0.3
				c-0.8,0.5-36.2,20.9-55.6,0.9c-2.3-2.3-6-2.4-8.4-0.1c-2.3,2.3-2.4,6-0.1,8.4c9.1,9.3,20.1,12.4,30.8,12.4
				c15,0,29.2-6.1,35.7-9.4c17.7,14.6,107.1,90.8,111.7,139c4.5,46.8-21.8,59.7-26.5,61.6H1213.9z"/>
			<path fill="#FFFFFF" d="M1140.6,1491.7c-0.3,1.9,0.3,3.8,1.6,5.2l61.3,62.2c-3.6,5.9-7.3,17.2-0.5,34.2c-10.8,12-18.3,23.5-20,39
				c-3.9,36,14.1,50.6,22.4,55.3v37.1c0,3.3,2.7,5.9,5.9,5.9h232.9c3.3,0,5.9-2.7,5.9-5.9v-37.1c8.2-4.7,26.3-19.4,22.4-55.3
				c-1.5-14.2-7.9-25.1-17.3-36c11.7-7.2,31.8-26.1,27.6-70.5c-4.8-50.1-86-121.9-111.6-143.4c7.1-2.2,17.7-3.6,26.9,3.2
				c11.7,8.6,26.6,10.7,38.8,5.3c9.1-4,15.5-11.6,18-21.4h32.7c1.4,0,2.8-0.5,3.9-1.5c8.1-7.2,9-25.4,2.2-44.4
				c-10.9-30.7-36.6-50-68.8-51.7c-16.3-5.8-34-17-36.7-23.3c-1.2-2.8-2.6-12.4-3.9-20.8c-4-26.7-6.6-39.7-13.5-43.5
				c-8.8-4.8-82.4-24.8-148.9,26.6c-60,46.4-53.9,133.4-50.2,185.3c0.3,4.9,0.7,9.5,0.9,13.6c2.7,46.9,1,63.3-28.9,77.6
				C1142.1,1488.2,1140.9,1489.8,1140.6,1491.7z M1444.5,1588.4h-230.6c-6.6-16.7,0.4-24.4,1.3-25.4c4-3.1,44.5-35.3,48.6-75.1
				c2.2-21.2-6.9-41.4-16.5-62.9c-9.4-21.1-19.2-42.8-21.1-69.4c-3.7-51.6,35-79.6,35.4-79.9c1.2-0.8,2-2.1,2.4-3.5l13.3-56.7
				c2.2,0.6,5,1.8,7.5,4.2c5,4.8,7.6,12.9,7.6,24.1c0,2,1,3.9,2.7,5c1.7,1.1,3.8,1.2,5.7,0.4c0.4-0.2,40.4-17.8,77.7,5.7
				c6.8,11.9,29.9,23.5,43.5,28.3c0.5,0.2,1.1,0.3,1.7,0.3c39.8,1.7,54.6,31.2,59.1,43.9c5.1,14.3,4.2,25.7,2.1,30.1h-34.2
				l-38.4-7.3c-3.2-0.6-6.3,1.5-6.9,4.7c-0.6,3.2,1.5,6.3,4.7,6.9l33,6.3c-1.9,5.4-5.5,9.5-10.7,11.8c-8.2,3.6-18.8,2-27-4
				c-21.7-16-47-1.1-48.2-0.3c-0.8,0.5-36.2,20.9-55.6,0.9c-2.3-2.3-6-2.4-8.4-0.1c-2.3,2.3-2.4,6-0.1,8.4
				c9.1,9.3,20.1,12.4,30.8,12.4c15,0,29.2-6.1,35.7-9.4c17.7,14.6,107.1,90.8,111.7,139C1475.5,1573.6,1449.2,1586.5,1444.5,1588.4
				z M1217.3,1689.8h221v28.9h-221V1689.8z M1212.6,1600.3H1443c9.9,10.9,16.3,20.5,17.7,33.2c3.5,32.1-13.6,42.5-17.7,44.5h-230.4
				c-4.1-2-21.2-12.3-17.7-44.5C1196.2,1620.7,1202.6,1611.1,1212.6,1600.3z M1156.2,1494.2c30.6-17.8,30.8-42.3,28.3-85.1
				c-0.2-4.2-0.6-8.8-0.9-13.8c-3.5-49.6-9.4-132.6,45.6-175.1c59.9-46.3,126.8-30.1,135.7-25.7c3.1,3.8,6.1,24,7.8,35
				c0.6,3.7,1,7,1.5,9.8c-29.1-13.5-57.2-7.8-70.5-3.7c-1.2-10.6-4.9-18.9-11-24.6c-9-8.4-19.9-7.8-20.4-7.8c-2.6,0.2-4.8,2-5.4,4.6
				l-14,59.7c-8.5,6.8-42.3,36.9-38.5,89c2.1,28.6,12.7,52.4,22.1,73.4c9.3,20.8,17.4,38.7,15.5,56.8c-3,29.2-30,54.9-40.3,63.8
				L1156.2,1494.2z"/>
		</g>
	</g>
</g>
</svg>
